<?xml version="1.0" encoding="UTF-8" standalone="no"?><!DOCTYPE svg PUBLIC "-//W3C//DTD SVG 1.1//EN" "http://www.w3.org/Graphics/SVG/1.1/DTD/svg11.dtd"><svg width="100%" height="100%" viewBox="0 0 834 834" version="1.1" xmlns="http://www.w3.org/2000/svg" xmlns:xlink="http://www.w3.org/1999/xlink" xml:space="preserve" xmlns:serif="http://www.serif.com/" style="fill-rule:evenodd;clip-rule:evenodd;stroke-linejoin:round;stroke-miterlimit:2;"><g id="Warstwa-1" serif:id="Warstwa 1"><g><path d="M417.847,15.67c221.956,0 401.888,179.932 401.888,401.888c-0,221.957 -179.932,401.888 -401.888,401.888c-221.957,0 -401.888,-179.931 -401.888,-401.888c-0,-221.956 179.931,-401.888 401.888,-401.888" style="fill:#2ea3a6;"/><path d="M501.736,423.216c-0,4.41 1.231,8.933 1.778,13.112c1,7.623 0.925,16.291 1.92,23.977l4.906,36.528c3.051,18.354 7.403,57.409 10.813,72.053c-4.156,-0.092 -13.108,-2.318 -17.214,-3.499c-5.42,-1.559 -10.871,-3.246 -15.872,-4.84c-10.779,-3.438 -22.676,-5.565 -33.712,-8.362c-5.726,-1.451 -11.01,-2.408 -16.951,-3.763l-33.711,-7.678c-1.119,-0.712 -0.781,-0.909 -0.146,-3.274c0.429,-1.601 0.725,-2.8 1.095,-4.197c0.746,-2.811 1.73,-5.955 2.453,-8.553c2.93,-10.524 6.063,-21.91 9.943,-31.489c1.048,-2.586 1.75,-4.521 2.633,-7.725c2.692,-9.766 11.974,-38.769 16.106,-46.69c2.144,-4.11 16.447,-3.407 22.127,-8.944c14.56,-14.192 4.544,-35.143 -13.774,-35.143c-5.507,0 -17.653,2.992 -21.927,4.612c-13.706,5.194 -19.923,14.874 -25.237,27.845c-5.354,13.069 -9.973,26.167 -13.903,39.83l-6.651,19.892c-2.716,8.155 -11.773,36.359 -11.895,41.838c-6.221,-1.45 -15.681,-6.67 -22.571,-9.147c-6.745,-2.424 -19.008,-7.686 -25.973,-7.686c-7.137,0 -11.321,4.532 -14.24,4.532c-4.526,0 -10.21,-6.672 -22.808,3.73c-19.335,15.965 -21.286,28.741 -32.731,47.542c-2.641,4.339 -4.338,8.653 -6.81,13.258c-2.403,4.478 -5.063,8.212 -7.681,12.387c-10.417,16.607 -18.199,33.771 -32.407,47.865c-1.774,1.76 -2.876,3.337 -4.504,5.206c-8.168,9.378 -17.495,15.369 -29.895,20.596c-5.036,2.122 -19.161,5.572 -25.177,3.063c-15.342,-6.399 -27.645,5.277 -28.093,12.2c-0.158,2.447 3.242,4.946 4.829,6.53l16.276,16.739c3.051,2.577 4.963,5.759 9.129,5.759c14.842,-0 25.128,-1.766 35.97,-6.104c10.417,-4.168 18.99,-8.54 27.722,-14.353c6.245,-4.157 11.826,-8.783 16.725,-14.347l19.357,-22.721c2.956,-3.774 5.214,-9.473 9.386,-11.976c2.319,-1.392 4.294,-2.429 6.214,-4.143l19.529,-22.549c6.415,-8.295 11.826,-14.089 18.493,-23.585c4.434,-6.316 14.068,-18.101 20.069,-22.655c2.988,-2.267 8.027,-8.298 8.414,-12.949l15.317,6.044c4.928,2.305 10.233,4.971 15.751,6.257c-0.682,8.208 -7.843,34.621 -10.625,41.813c-1.766,4.565 -3.058,7.958 -4.662,12.817c-0.845,2.561 -1.442,3.866 -2.263,6.154l-7.901,18.641c-4.492,8.976 -10.795,15.944 -10.795,26.753c0,19.352 26.505,26.896 38.398,6.684c6.702,-11.389 12.781,-23.158 17.348,-35.736c6.762,-18.622 10.27,-28.621 15.315,-48.129c1.509,-5.838 2.64,-11.416 4.021,-17.343l67.572,15.281c17.642,3.998 31.335,9.434 49.205,12.934c3.451,0.676 5.066,1.095 8.615,1.742c2.39,0.436 5.756,1.531 8.59,1.766c0.267,12.009 5.227,35.811 7.012,48.665c1.358,9.779 3.399,16.162 0.53,25.564c-3.039,9.96 -1.278,8.699 4.47,22.523c2.849,6.852 5.679,12.016 13.231,12.016c4.507,-0 8.441,-2.556 11.022,-4.513c8.243,-6.252 13.574,-26.459 13.574,-36.922c-0,-10.452 -2.294,-20.115 -3.772,-30.541c-0.785,-5.535 -1.44,-9.773 -2.331,-15.149c-0.742,-4.478 -2.218,-10.956 -2.312,-15.168c10.99,-0 21.946,4.179 31.549,-4.052c1.37,-1.175 3.575,-4.153 4.508,-5.849c5.454,-9.913 0.269,-23.324 -9.771,-27.398c-7.415,-3.008 -17.946,-2.373 -25.551,-3.576c-7.716,-1.22 -5.522,0.757 -9.756,-19.376c-2.565,-12.194 -3.323,-24.99 -5.495,-37.881l-5.732,-38.292c-1.507,-8.949 -4.104,-29.905 -4.353,-39.67c-0.131,-5.101 -1.193,-9.3 -1.289,-13.602l13.328,-9.975c3.129,-2.418 8.131,-9.882 10.355,-13.597c6.812,-11.382 9.974,-20.045 9.974,-37.933c0,-8.536 -0.652,-16.397 -4.239,-21.657c-9.746,-14.293 -32.399,-12.058 -36.285,6.372c-0.754,3.575 -0.262,12.996 -0.252,17.228c0.061,25.679 -20.539,22.978 -30.412,40.15c-1.587,2.76 -3.893,9.878 -3.893,14.233" style="fill:#088085;"/><path d="M579.406,91.088l1.234,26.605c0.73,7.778 6.731,32.914 8.637,41.86l6.045,27.619c2.329,14.425 3.565,31.847 4.763,46.383l0.685,16.147c-0.06,11.723 0.644,22.017 0.643,33.023c-0.003,34.186 2.898,74.076 10.879,107.597c4.173,17.53 4.453,20.701 10.557,39.939c11.873,37.418 16.442,36.768 25.634,85.069l2.403,14.43c0.361,2.569 0.217,5.272 0.721,7.695c1.103,5.317 2.769,7.735 5.943,10.889c11.186,11.117 33.185,6.354 33.185,-15.066c-0,-14.761 -1.3,-18.022 -3.513,-31.447c-2.602,-15.788 -5.82,-24.138 -9.574,-37.686c-3.845,-13.878 -8.894,-23.582 -12.561,-34.698c-8.117,-24.605 -14.849,-49.29 -18.474,-75.397l-4.426,-42.835c-0.29,-5.37 0.17,-10.421 -0.467,-15.071c-1.393,-10.164 0.952,-21.242 -0.551,-31.173c-1.594,-10.532 0.089,-34.019 -2.503,-51.879l-2.028,-21.927c-1.932,-13.779 -3.097,-15.789 -4.883,-26.191c-3.538,-20.606 -12.219,-47.317 -12.219,-67.412c0,-3.22 3.119,-7.582 4.846,-11.339c2.487,-5.409 3.569,-5.655 3.569,-13.263c-1.72,-0.459 -5.195,-2.92 -6.998,-4.007c-4.257,-2.567 -20.415,-12.179 -23.423,-12.179c-2.139,0 -5.463,4.397 -6.967,5.981c-2.586,2.722 -3.071,4.52 -4.43,8.516c-1.22,3.587 -2.794,5.579 -4.231,8.717c-1.382,3.018 -2.496,6.517 -2.496,11.1" style="fill:#088085;"/><path d="M179.402,259.418l0.458,5.705c-0.387,4.101 -3.248,8.373 1.674,17.412c0.908,1.668 3.796,5.27 5.248,6.404c4.397,3.432 8.601,7.613 10.94,13.012c0.869,2.007 3.299,6.786 3.287,7.86c-0.072,6.313 -16.25,30.572 -21.509,37.107c-3.585,4.454 -8.339,7.353 -12.56,11.392c-9.723,9.304 -24.054,20.678 -16.388,37.441c1.135,2.483 1.579,1.539 1.574,4.06c-0.003,1.434 -0.556,2.595 -0.556,5.277c-0,10.652 9.509,19.423 20.065,19.423c6.226,-0 16.938,-4.479 22.431,-7.349c5.457,-2.851 2.66,-1.068 7.99,-1.068c12.562,0 17.611,-9.62 24.109,-16.024c17.013,-16.766 26.84,-49.67 28.297,-72.047c1.283,-19.707 3.075,-23.739 -2.934,-44.931c-1.255,-4.425 -2.407,-7.824 -4.15,-11.388c-2.886,-5.901 -8.138,-13.579 -13.721,-17.351c-6.657,-4.498 -14.792,-6.504 -22.691,-8.38c-3.706,-0.88 -3.188,-0.247 -4.832,-2.936c-2.22,-3.631 -2.981,-3.042 -8.609,-3.042c-9.069,0 -18.123,8.925 -18.123,19.423" style="fill:#088085;"/><path d="M386.469,16.634c1.934,2.691 4.024,3.54 3.671,8.915c-0.402,6.115 -8.763,31.406 -11.192,39.254c-1.186,3.83 -2.071,5.508 -3.371,8.77c-2.29,5.745 -4.701,12.761 -6.525,18.242c-5.424,16.3 -10.671,24.004 -14.551,35.146c-3.074,8.827 -9.734,30.979 -10.674,39.467c-0.081,-4.111 0.513,0.281 -1.317,-1.531c0,8.248 -1.509,12.607 -2.43,19.579c-2.114,16.015 -3.218,34.682 -2.769,51.009c0.101,3.707 1.109,6.204 1.43,9.69c1.148,3.27 3.17,7.382 7.006,7.952c3.047,-1.364 1.966,-2.435 4.531,-4.468l0.364,1.72c4.625,-3.697 4.128,-11.899 5.441,-20.668c1.135,-7.581 1.426,-15.69 2.362,-23.717c1.745,0.255 -0.905,-2.375 1.569,2.416c0.152,-4.134 -1.325,-18.475 0.62,-20.699c2.716,1.153 3.04,14.116 3.377,17.334c2.861,27.377 3.044,29.308 0.225,59.353c-1.176,12.536 -2.98,25.849 -3.478,38.391c-0.556,14.004 -1.117,26.233 -2.304,40.088c-0.568,6.62 -1.15,12.638 -1.37,19.467c-0.164,5.081 -0.139,15.038 -1.565,19.481c-0.797,2.481 -2.328,4.709 -3.244,7.129c-1.931,5.102 -4.021,15.097 -7.533,24.176c-4.07,10.52 -6.349,21.358 -9.892,32.191c-1.751,5.356 -2.976,10.751 -4.703,16.003c-1.391,4.231 -2.196,3.107 -4.245,6.134c-1.739,2.569 -2.127,5.395 -5.357,5.651c0.715,-5.524 2.778,-0.358 3.336,-11.611c0.171,-3.459 2.462,-8.506 3.073,-12.344l-3.214,0.85c-0.127,4.838 -0.781,0.137 -2.835,7.279c-2.638,9.172 -4.226,15.721 -7.987,25.03c-1.198,2.966 -1.893,5.349 -2.658,8.348c-0.924,3.623 -0.42,6.145 -1.111,9.895l-2.174,13.871c0.197,2.162 0.893,1.927 1.386,4.608c2.375,1.475 1.338,-5.077 15.407,0.596c5.062,2.041 11.2,3.77 16.637,5.394c5.458,1.631 10.991,3.037 16.611,4.808c6.24,1.966 10.422,3.799 10.523,11.214c1.377,-1.508 2.717,-7.473 3.451,-9.711c2.412,-7.359 6.205,-14.566 7.547,-19.643c3.025,-11.448 18.047,-43.415 15.218,-52.221c0.396,-1.104 -1.453,5.596 -2.173,6.409c-2.294,2.588 -4.4,0.198 -6.343,-1.23l9.41,-33.843c1.866,-8.212 8.9,-30.006 4.846,-38.021c-3.231,-1.112 -13.961,8.56 -14.541,0.737c-4.774,-0.623 4.73,-9.91 7.867,-15.134c5.14,-8.558 19.498,-52.664 23.059,-56.519c0.323,4.215 0.461,8.868 -1.521,12.562c16.298,-0.368 -1.437,40.215 4.481,59.856c5.421,-0.247 8.144,-1.252 13.38,0.624c8.849,3.17 13.947,24.365 15.834,32.805c2.055,9.195 9.718,49.189 7.289,55.928c-2.315,0.744 -3.142,0.808 -5.388,-0.636c0,6.41 -0.046,15.091 0.992,20.79c1.08,5.93 2.995,10.984 2.333,18.573c-0.245,2.805 0.886,15.794 2.558,19.264c2.448,5.077 0.47,2.61 2.299,8.707c0.861,2.873 1.925,6.436 2.174,9.529c5.637,1.714 4.232,-5.79 15.878,-2.338c7.396,2.192 32.72,5.414 44.262,10.1c3.512,1.425 4.447,3.647 6.528,4.276c-0,-4.292 -1.07,-10.453 -1.298,-14.675c-0.29,-5.378 0.407,-11.507 -0.031,-16.802l-2.555,-30.138c-1.077,1.942 0.4,1.85 -1.294,4.417c-2.61,-1.008 -1.059,-0.934 -2.907,-2.477c-1.288,-1.074 -2.038,-0.906 -3.352,-1.823c-9.097,-6.352 -25.816,-94.898 -26.304,-108.558c-0.148,-4.152 1.234,-18.011 -0.77,-20.355l0.183,13.819c-0.432,-4.557 -2.853,-13.273 -3.651,-17.961c-1.062,-6.236 -1.976,-13.646 -2.603,-20.148c-3.667,-38.004 -5.812,-45.499 0.208,-82.414c1.918,-11.765 4.186,-20.942 7.555,-31.997l2.051,-4.418c-0.646,11.52 -7.46,46.677 -7.26,48.755c1.033,10.714 -2.265,37.386 -0.751,52.828c0.511,5.207 1.548,10.754 2.598,16.039c0.895,4.506 0.926,14.254 1.952,16.982l0.316,-10.634l2.771,-0.854c3.208,-1.302 1.813,-1.705 4.917,-6.703c3.02,-4.863 7.381,-16.593 8.176,-22.26c0.774,-5.518 0.078,-9.345 3.849,-11.689c2.421,-1.505 2.319,-0.632 3.012,-4.107c0.695,-3.481 -0.239,-4.642 0.198,-7.44c0.507,-3.242 3.824,-3.748 1.86,-13.382c-1.248,-6.127 -4.522,-20.931 -3.766,-26.761c2.36,0.803 1.911,0.978 3.417,6.291c3.4,12.004 15.376,42.075 22.447,50.1c7.543,8.561 21.249,7.003 28.567,-0.744c3.377,-3.576 6.017,-7.122 9.399,-11.31c2.668,-3.304 2.208,-1.479 3.928,-6.441c1.443,-4.161 2.443,-3.011 2.192,-8.154c7.247,1.882 7.088,-2.027 10.377,-5.885c5.719,1.34 5.985,7.115 3.693,12.832c-4.577,11.415 -12.553,12.542 -15.303,24.186c-1.083,4.586 -3.344,12.206 -3.333,16.761c0.03,11.397 3.477,22.991 6.908,32.672l11.68,28.455c4.73,9.351 9.054,15.538 12.912,26.598c3.471,9.951 7.414,18.756 10.816,28.658c4.639,13.501 16.977,48.234 25.055,54.344c-0,-3.889 -0.839,-4.651 -0.477,-8.195l0.025,-10.358c-0.142,-1.182 -0.359,-0.135 -0.098,-1.252c0.314,-1.347 0.044,-0.56 0.58,-1.338l0,-0.647c0.019,-5.237 2.464,-8.984 7.089,-6.595l2.038,0.331l0.965,-1.825c3.082,1.294 1.621,1.124 3.736,2.743c3.596,-0.831 7.261,8.611 9.443,10.918c6.118,-2.538 -2.02,-10.118 -5.546,-22.685l-8.356,-25.308c-6.741,-20.525 -4.777,-4.558 -8.198,-25.466c-1.22,-7.457 -2.376,-13.355 -4.829,-20.419c-0.935,-2.691 -1.838,-4.058 -2.754,-6.309c-0.915,-2.248 -1.897,-3.863 -2.603,-5.813c-0.712,-1.967 -1.378,-4.757 -1.878,-6.538c-4.168,-14.838 -5.413,-23.793 -10.741,-39.755c-1.534,-4.595 -2.603,-8.115 -3.775,-13.057c-4.694,-19.788 -0.341,-38.089 -4.191,-46.955c-1.748,-4.024 -0.969,-10.227 -1.637,-15.196c-1.001,-7.45 -3.139,0.052 -3.099,-13.733c0.056,-19.263 1.346,-29.417 -1.142,-48.108c-0.307,-2.308 2.53,-13.559 0.33,-31.36c-0.668,-5.405 -5.108,-20.474 -6.683,-27.628c-1.083,-4.919 -1.883,-9.414 -2.806,-14.027c-0.924,-4.616 -1.891,-9.797 -2.475,-14.358c-0.352,-2.754 0.026,-5.269 -0.411,-8.005c-0.452,-2.827 -1.172,-4.451 -1.613,-6.803c-0.908,-4.851 -1.974,-8.885 -2.943,-13.889c-2.122,-10.947 -2.949,-5.426 1.13,-12.354c2.248,-3.818 3.433,-7.471 5.046,-11.786c1.32,-3.531 4.998,-7.995 5.095,-12.384c-3.613,-1.913 -6.8,-3.739 -10.57,-5.612c-14.205,-7.059 -22.071,-7.912 -37.046,-12.149l-36.938,-12.257c-4.366,-1.484 -7.801,-3.424 -12.144,-4.685c-4.309,-1.251 -8.641,-2.104 -13.08,-3.103c-27.221,-6.123 -27.237,-1.644 -45.755,-4.085c-4.709,-0.62 -10.576,-0.379 -14.994,-1.188c-2.834,-0.518 -4.322,-1.016 -6.716,-1.698c-8.063,-2.297 -24.252,1.771 -29.874,2.052c-2.67,0.133 -5.757,-0.005 -8.474,-0.005" style="fill:#ffbfa6;"/><path d="M488.75,372.985l-0.282,8.515c2.004,2.344 0.622,16.203 0.77,20.355c0.488,13.66 17.207,102.206 26.304,108.558c1.314,0.917 2.064,0.749 3.352,1.823c1.848,1.543 0.297,1.469 2.907,2.477c1.694,-2.567 0.217,-2.475 1.294,-4.417c2.896,-5.734 0.842,-7.113 -0.65,-10.681l-12.355,-73.102c-0.351,-3.657 -0.048,-10.09 -0.594,-12.367c-0.395,-1.649 -0.541,-1.118 -0.456,-2.544c0.124,-2.077 3.384,-5.232 4.768,-6.092c1.83,-1.138 2.609,-1.264 4.489,-2.631c1.487,-1.081 2.74,-1.947 3.997,-3.124l15.044,-13.439c4.339,-3.271 9.356,-11.978 11.383,-17.101l5.593,-15.77c1.054,-2.417 1.144,-2.033 1.144,-5.977l1.294,-0c0.179,2.148 1.618,3.927 2.499,5.916c0.975,2.201 1.429,4.587 2.031,7.033c2.234,9.083 3.167,7.939 4.783,12.697c2.817,8.294 3.281,15.291 7.789,27.169c2.551,6.722 5.357,11.454 8.567,17.329l5.912,11.566c5.921,9.743 4.602,5.244 9.567,17.622c2.153,5.367 5.267,12.849 8.236,17.659c3.863,6.257 5.733,11.233 7.112,19.431c0.827,4.917 1.693,10.032 3.424,14.702c0.976,2.632 1.074,3.946 2.199,6.217l9.361,17.182c3.463,4.998 6.216,5.699 11.682,10.327c3.379,2.862 7.855,1.953 10.548,0.313l-4.388,-11.406l-0.647,-1.543l-2.589,-2.164c-8.078,-6.11 -20.416,-40.843 -25.055,-54.344c-3.402,-9.902 -7.345,-18.707 -10.816,-28.658c-3.858,-11.06 -8.182,-17.247 -12.912,-26.598l-11.68,-28.455c-3.431,-9.681 -6.878,-21.275 -6.908,-32.672c-0.011,-4.555 2.25,-12.175 3.333,-16.761c2.75,-11.644 10.726,-12.771 15.303,-24.186c2.292,-5.717 2.026,-11.492 -3.693,-12.832c-3.289,3.858 -3.13,7.767 -10.377,5.885c0.251,5.143 -0.749,3.993 -2.192,8.154c-1.72,4.962 -1.26,3.137 -3.928,6.441c-3.382,4.188 -6.022,7.734 -9.399,11.31c-7.318,7.747 -21.024,9.305 -28.567,0.744c-7.071,-8.025 -19.047,-38.096 -22.447,-50.1c-1.506,-5.313 -1.057,-5.488 -3.417,-6.291c-0.756,5.83 2.518,20.634 3.766,26.761c1.964,9.634 -1.353,10.14 -1.86,13.382c-0.437,2.798 0.497,3.959 -0.198,7.44c-0.693,3.475 -0.591,2.602 -3.012,4.107c-3.771,2.344 -3.075,6.171 -3.849,11.689c-0.795,5.667 -5.156,17.397 -8.176,22.26c-3.104,4.998 -1.709,5.401 -4.917,6.703l-2.771,0.854l-0.316,10.634Z" style="fill:#e38563;"/><path d="M506.394,682.833c-0.537,-5.68 -4.724,-9.727 -3.253,-15.602c0.974,-3.89 0.344,-3.119 0.284,-7.059c-0.047,-3.1 0.249,-6.478 0.249,-9.71l-0.991,0.776c-0.083,0.087 -0.299,0.293 -0.386,0.39c-0.079,0.087 -0.238,0.31 -0.306,0.389c-0.063,0.074 -0.17,0.258 -0.255,0.387c-0,-4.964 -0.58,-6.294 2.589,-8.416l0.134,-0.648c0.59,-0.97 1.69,-3.14 2.617,-4.37c1.248,-1.659 2.69,-3.332 4.311,-1.288c1.141,-0.562 2.361,-1.218 3.941,-1.676l1.942,-0.034l0.647,0l1.942,0.894c3.074,-0 1.227,-0.014 1.942,0.647c4.975,0.414 9.37,4.796 12.017,8.697c1.058,1.559 2.06,2.945 2.222,4.899l0.648,1.295l0.826,0.648l0,0.647l0.442,0.647c1.226,4.087 2.633,7.544 3.729,11.828c1.198,4.679 1.082,9.245 1.975,13.422c2.691,-0 2.678,-0.181 4.678,-0.647c2.429,-10.428 -5.012,-30.565 -5.012,-30.569c-0.32,-3.785 1.92,-0.521 0.814,-5.938c-2.632,-12.899 -11.632,-29.018 -14.199,-46.09c-0.624,-4.156 -2.226,-9.495 -2.315,-13.043c-1.748,1.383 -4.355,8.059 -13.861,4.633c-9.39,-3.383 -30.202,-6.477 -41.172,-10.605c-6.448,-2.426 -4.932,-3.091 -5.975,-1.976c-0.599,4.877 2.118,2.854 0.652,6.374c-0.536,1.286 -1.137,1.302 -0.9,3.09c0.221,1.675 1.12,2.48 1.665,3.524c1.171,2.244 1.576,4.519 2.399,7.315c3.666,12.452 4.848,20.349 5.419,33.425c0.125,2.857 0.859,5.402 1.366,8.345c1.823,10.566 5.065,20.563 10.279,27.917c3.951,5.573 7.862,11.658 12.365,16.77c2.09,2.373 3.506,3.013 6.531,0.712" style="fill:#ffbfa6;"/><path d="M290.73,595.287c0,5.659 -1.363,6.323 -0.832,11.967c0.219,2.326 -0.586,3.585 -0.85,5.922c-0.191,1.696 0.002,3.796 -0.025,5.556c-0.089,5.678 -0.896,7.431 -0.919,11.653c-0.029,5.272 0.397,8.331 2.626,11.66c3.216,0 2.612,0.043 4.452,-1.295l0.174,-1.942c-0.128,-2.234 -0.247,-2.78 0.269,-4.809l1.339,-3.199c0.047,-0.088 0.149,-0.279 0.239,-0.408l0.54,-0.648l1.864,-5.179l1.479,-2.59l0.647,-1.295c0,-1.045 -0.2,-0.647 1.107,-0.647l0,-0.648c-0.796,-1.801 -0.629,-0.799 0.188,-1.294c0.138,-1.619 0.133,-1.556 0.613,-2.59c0,-1.057 -0.29,-0.839 0.681,-0.839l0.272,-0.456c1.312,-3.244 3.781,-6.935 6.848,-8.507l0.648,-0.557c0.536,-0.801 0.851,-1.581 1.861,-2.11c1.716,-0.899 1.437,-0.621 2.669,0.08l5.178,0.875c0.857,-0.185 0.648,-0.362 0.648,0.508c7.63,1.778 6.564,16.244 7.598,23.492c0.332,2.325 0.169,6.948 -1.204,8.879l-1.513,12.948c5.122,-0.096 5.462,-2.059 7.339,-4.609l7.819,-11.602c5.108,-8.714 5.43,-22.515 6.498,-24.407c-2.341,-1.228 -0.945,-7.643 -0.335,-10.212c0.78,-3.285 1.437,-6.74 2.025,-10.197c4.848,-28.508 11.49,-37.797 -17.886,-45.756c-17.818,-4.827 -32.134,30.996 -37.468,45.302c-2.139,5.736 -1.462,7.253 -4.589,6.954" style="fill:#ffbfa6;"/><path d="M328.271,432.928l-0.647,1.294l0.647,-1.294Zm-0,-0l0.356,-1.393l-0.356,1.393Zm0.647,-2.59c0,-1.656 1.025,-0.104 0.385,-0c-0.008,0.001 -0.385,1.807 -0.385,-0Zm21.724,-179.959c0.296,3.5 0.055,5.73 -0.171,9.114c-0.3,4.511 0.107,5.627 -4.724,5.036c1.168,2.346 3.495,5.636 3.122,8.941c-0.421,3.726 -2.066,5.925 -3.3,14.904c-0.187,1.363 -0.818,3.88 -1.011,5.463c-0.476,3.892 -1.078,8.034 -1.367,11.582c-0.323,3.983 0.291,8.029 -0.306,11.994c-0.443,2.944 -0.889,8.658 -1.024,11.277l-0.63,36.921c0.032,6.025 -2.633,14.686 -3.723,20.878c-0.681,3.87 -0.764,8.052 -1.368,11.579c-3.118,18.216 -6.201,21.37 -10.43,33.661c-0.917,2.664 -0.284,3.136 0.619,4.436c0,7.632 -3.965,6.866 -2.589,13.839l3.214,-0.85c-0.611,3.838 -2.902,8.885 -3.073,12.344c-0.558,11.253 -2.621,6.087 -3.336,11.611c3.23,-0.256 3.618,-3.082 5.357,-5.651c2.049,-3.027 2.854,-1.903 4.245,-6.134c1.727,-5.252 2.952,-10.647 4.703,-16.003c3.543,-10.833 5.822,-21.671 9.892,-32.191c3.512,-9.079 5.602,-19.074 7.533,-24.176c0.916,-2.42 2.447,-4.648 3.244,-7.129c1.426,-4.443 1.401,-14.4 1.565,-19.481c0.22,-6.829 0.802,-12.847 1.37,-19.467c1.187,-13.855 1.748,-26.084 2.304,-40.088c0.498,-12.542 2.302,-25.855 3.478,-38.391c2.819,-30.045 2.636,-31.976 -0.225,-59.353c-0.337,-3.218 -0.661,-16.181 -3.377,-17.334c-1.945,2.224 -0.468,16.565 -0.62,20.699c-2.474,-4.791 0.176,-2.161 -1.569,-2.416c-0.936,8.027 -1.227,16.136 -2.362,23.717c-1.313,8.769 -0.816,16.971 -5.441,20.668" style="fill:#ffe0d6;"/><path d="M384.954,393.524c0.58,7.823 11.31,-1.849 14.541,-0.737c4.054,8.015 -2.98,29.809 -4.846,38.021l-9.41,33.843c1.943,1.428 4.049,3.818 6.343,1.23c0.72,-0.813 2.569,-7.513 2.173,-6.409c1.551,-1.338 2.615,-6.505 4.42,-11.006c2.011,-5.016 6.281,-18.461 8.101,-21.678c2.027,-3.583 3.625,-5.461 4.844,-10.694c8.735,0 3.921,-4.424 10.866,-6.611c4.677,-1.473 12.814,0.861 15.671,-0.51c0.655,2.811 1.868,3.938 2.885,7.473c0.87,3.024 1.495,6.156 2.169,8.837l3.434,17.929c1.415,6.931 0.791,12.151 1.218,20.148c0.164,3.071 1.718,17.96 2.592,19.65c2.246,1.444 3.073,1.38 5.388,0.636c2.429,-6.739 -5.234,-46.733 -7.289,-55.928c-1.887,-8.44 -6.985,-29.635 -15.834,-32.805c-5.236,-1.876 -7.959,-0.871 -13.38,-0.624c-5.918,-19.641 11.817,-60.224 -4.481,-59.856c0.251,4.288 -3.153,13.56 -4.498,17.569l-5.113,16.996c-1.467,2.74 -3.288,2.749 -5.447,6.112c-5.434,8.466 1.943,0.979 -8.809,13.224c-1.593,1.815 -4.111,3.315 -5.538,5.19" style="fill:#e38563;"/><path d="M342.51,164.897c1.83,1.812 1.236,-2.58 1.317,1.531c0.94,-8.488 7.6,-30.64 10.674,-39.467c3.88,-11.142 9.127,-18.846 14.551,-35.146c1.824,-5.481 4.235,-12.497 6.525,-18.242c1.3,-3.262 2.185,-4.94 3.371,-8.77c2.429,-7.848 10.79,-33.139 11.192,-39.254c0.353,-5.375 -1.737,-6.224 -3.671,-8.915c-2.308,-0.199 -2.934,-1.04 -7.139,-0.092c-2.665,0.601 -3.145,1.383 -5.614,9.94c-1.076,3.726 -2.202,5.338 -3.567,8.734c-1.32,3.287 -2.087,5.512 -3.279,9.021c-2.121,6.245 -4.48,11.953 -6.236,18.364l-12.814,35.74c-1.291,4.222 -3.636,15.296 -3.992,20.608l-1.969,22.633c0.045,8.616 0.651,15.061 0.651,23.315" style="fill:#fcded4;"/><path d="M308.361,519.035l-0.578,0.806c-1.941,2.821 -2.603,3.833 -2.058,8.177c0.821,6.55 0.467,1.815 -0.503,5.483l-6.248,26.16c-0.133,0.405 -0.766,2.023 -0.852,2.418c-0.802,3.699 0.674,1.904 0.209,5.34c-0.091,0.673 -0.939,2.843 -1.406,4.426l-2.592,9.709c-0.835,4.023 -4.772,11.308 -3.603,13.733c3.127,0.299 2.45,-1.218 4.589,-6.954c5.334,-14.306 19.65,-50.129 37.468,-45.302c29.376,7.959 22.734,17.248 17.886,45.756c-0.588,3.457 -1.245,6.912 -2.025,10.197c-0.61,2.569 -2.006,8.984 0.335,10.212c2.973,-2.495 2.511,-3.03 2.577,-7.951l10.499,-43.881c1.136,-3.857 5.9,-12.469 5.48,-16.317c-0.101,-7.415 -4.283,-9.248 -10.523,-11.214c-5.62,-1.771 -11.153,-3.177 -16.611,-4.808c-5.437,-1.624 -11.575,-3.353 -16.637,-5.394c-14.069,-5.673 -13.032,0.879 -15.407,-0.596" style="fill:#e38563;"/><path d="M460.311,559.873c-0.779,2.806 -1.694,1.054 -1.195,4.318l5.5,9.436c0.106,0.106 0.235,0.237 0.346,0.342c0.117,0.11 0.257,0.238 0.376,0.344c0.917,0.823 0.015,0.15 1.28,1.048c1.043,-1.115 -0.473,-0.45 5.975,1.976c10.97,4.128 31.782,7.222 41.172,10.605c9.506,3.426 12.113,-3.25 13.861,-4.633c1.326,-6.445 0.429,-6.053 -0.647,-11.398c-2.081,-0.629 -3.016,-2.851 -6.528,-4.276c-11.542,-4.686 -36.866,-7.908 -44.262,-10.1c-11.646,-3.452 -10.241,4.052 -15.878,2.338" style="fill:#e38563;"/><path d="M511.387,637.682c-0.121,3.637 -2.233,6.42 -2.203,12.778c0.024,4.922 0.424,9.23 1.096,14.031c0.963,6.878 3.567,18.303 6.251,24.08c0.09,-0.121 0.221,-0.467 0.25,-0.376c0.059,0.185 1.064,-1.545 0.952,-5.351c-0.089,-3.05 -0.795,-3.881 -1.063,-6.327c4.966,3.198 2.295,10.174 4.775,15.803l2.153,-6.622c0.911,3.083 0.247,4.444 2.086,6.891c2.348,-3.037 3.672,-8.67 2.905,-13.349c-0.999,-6.101 -5.397,-7.651 -6.081,-11.181c11.461,2.917 8.662,13.261 11.641,23.883c3.716,-4.158 2.139,-10.111 2.902,-15.802c1.903,1.104 1.796,4.522 3.944,10.794c1.002,2.927 2.335,9.117 3.46,11.112c-0,-3.875 -0.665,-4.757 -0.67,-8.717c-0.004,-3.24 0.159,-6.519 -0.125,-9.733c-0.893,-4.177 -0.777,-8.743 -1.975,-13.422c-1.096,-4.284 -2.503,-7.741 -3.729,-11.828c-0.852,0 -0.675,0.194 -0.442,-0.647l0,-0.647c-1.033,-0 -0.826,0.288 -0.826,-0.648l-0.648,-1.295c-1.559,-1.044 -5.162,-5.446 -6.34,-7.253c-3.376,-5.178 -5.244,-2.717 -7.899,-6.343c-3.074,0 -1.228,0.015 -1.942,-0.647c-3.411,-0 -1.079,0.21 -1.942,-0.894l-0.647,0l-1.942,0.034c-1.58,0.458 -2.8,1.114 -3.941,1.676"/><path d="M312.09,605.142l0.089,0.648c0.834,2.773 -2.348,7.488 -3.641,10.713c-1.506,3.757 -2.829,7.611 -4.097,11.368c-2.296,6.804 -5.754,18.011 -5.99,25.841l0.41,4.408c1.976,-3.005 2.744,-5.118 4.588,-7.888c2.758,-4.144 1.829,-4.908 3.462,-9.004c0.7,0.684 0.605,0.281 0.967,1.658c0.147,0.558 0.188,1.776 0.186,2.373c-0.006,1.616 -0.242,3.699 -0.479,5.258c-0.585,3.848 -1.528,6.393 -1.537,10.558l2.081,-2.953c1.866,-4.294 1.663,-8.704 2.666,-10.592c1.728,3.053 1.649,7.885 3.181,10.735c1.21,-3.117 2.874,-5.18 3.758,-9.329c0.755,-3.55 -0.637,-9.595 0.181,-11.922c2.151,1.683 4.052,7.341 4.807,10.595c1.088,4.693 0.823,9.041 0.441,13.859c3.441,-2.719 2.711,-7.426 4.164,-11.654l1.513,-12.948c0.294,-6.253 0.361,-13.304 -0.737,-18.607c-0.9,-4.349 -3.406,-10.401 -5.657,-13.764l-0.648,-0.508l-5.178,-0.875c-2.696,0.804 -2.252,1.422 -4.53,2.03"/><path d="M199.072,221.802c1.699,4.56 3.142,9.798 2.827,15.478c-0.162,2.915 -0.646,5.682 -1.575,8.088c-1.884,4.882 -1.711,4.796 -3.446,5.582c-1.46,-4.059 2.736,-14.411 -3.884,-18.151c-2.7,5.673 -1.75,13.812 -3.303,20.096c-1.246,5.04 -1.933,8.643 -4.427,13.022l-2.626,3.343c-0.995,-2.223 4.234,-11.271 0.954,-25.262l-1.659,0.703c-1.577,7.514 -2.875,19.009 -2.602,27.046c0.114,3.371 1.14,6.007 1.12,8.388c-1.246,1.495 -3.18,2.984 -5.56,2.711c-2.625,-0.301 -2.147,-0.985 -3.196,-3.397l-0.708,-1.333c0,1.943 0.276,6.322 0.664,7.838c1.026,4.007 7.223,1.1 12.212,-0.709c14.071,-5.102 4.747,-1.976 12.998,-2.494c5.009,-0.315 6.431,-5.784 6.643,-10.163c0.194,-4.026 -0.815,-2.236 1.654,-6.174c1.66,-2.646 2.584,-11.178 0.511,-14.495c-2.068,-3.311 -1.764,-1.128 -1.677,-6.739c0.063,-4.004 -0.534,-4.97 -0.641,-8.423c-0.201,-6.561 -2.556,-24.034 -9.808,-24.601c2.662,2.746 5.755,3.608 5.529,9.646"/><path d="M576.539,590.251c-2.63,-2.502 -9.881,-6.273 -11.203,-10.942c3.546,0.054 6.486,5.191 13.226,3.173c-0.67,-2.846 -4.887,-6.088 -8.525,-7.47c-7.799,-2.963 -10.667,-0.443 -13.484,-2.888c3.097,-4.535 15.63,-2.566 19.566,-1.938c-1.179,-1.749 -2.179,-2.433 -3.173,-4.714c-11.221,-7.404 -33.963,-9.864 -33.976,-9.874c-2.137,-1.437 -0.13,0.435 -0.86,-3.823c-0.015,-0.092 -0.048,-0.31 -0.128,-0.441c-6.418,0.834 -8.601,9.028 -4.819,14.604c2.223,3.276 7.306,10.146 10.169,12.488l6.984,4.021c3.326,1.744 22.867,7.714 26.223,7.804"/><path d="M642.868,495.728l0,0.647l-0.482,2.59l-0.025,10.358c1.01,1.937 3.004,7.596 3.066,10.359c0.836,0.508 0.647,-0.996 0.647,1.543l4.388,11.406l2.292,3.237c-0.776,-4.999 -1.071,-8.925 0.909,-13.396c0.882,7.123 1.777,10.456 5.717,14.428c0.572,-6.597 1.827,-15.105 -0.694,-21.441c-1.176,-2.954 -2.619,-3.019 -2.581,-5.173c6.207,0.807 9.2,18.999 11.278,21.604c-2.599,-18.647 -5.91,-31.286 -15.388,-42.426l-2.038,-0.331c-1.809,1.062 -2.587,0.804 -4.193,2.403c-1.354,1.348 -1.769,2.842 -2.896,4.192"/><path d="M488.468,381.5l0.282,-8.515c-1.026,-2.728 -1.057,-12.476 -1.952,-16.982c-1.05,-5.285 -2.087,-10.832 -2.598,-16.039c-1.514,-15.442 1.784,-42.114 0.751,-52.828c-0.2,-2.078 6.614,-37.235 7.26,-48.755l-2.051,4.418c-3.369,11.055 -5.637,20.232 -7.555,31.997c-6.02,36.915 -3.875,44.41 -0.208,82.414c0.627,6.502 1.541,13.912 2.603,20.148c0.798,4.688 3.219,13.404 3.651,17.961l-0.183,-13.819Z" style="fill:#ffded1;"/><path d="M504.459,643.34c0.748,0.573 0.677,0.155 -0.134,0.648c-0.552,2.368 -1.401,4.235 -0.651,6.474c0,3.232 -0.296,6.61 -0.249,9.71c0.06,3.94 0.69,3.169 -0.284,7.059c-1.471,5.875 2.716,9.922 3.253,15.602c3.013,2.545 6.075,14.09 7.389,16.437c1.642,2.933 1.807,0.416 7.642,8.541c1.327,1.847 2.228,3.09 3.768,4.647c2.751,2.783 5.435,6.989 8.905,7.278c0.452,-1.12 -0.008,-1.186 3.237,-1.942l-0,-1.758c-3.951,-2.704 -4.278,-2.969 -7.213,-6.568c-2.049,-2.513 -4.841,-4.443 -6.499,-7.281c-2.149,-2.905 -2.081,-3.454 -3.702,-6.478c-1.37,-2.554 -2.269,-3.782 -3.39,-7.138c-2.684,-5.777 -5.288,-17.202 -6.251,-24.08c-0.672,-4.801 -1.072,-9.109 -1.096,-14.031c-0.03,-6.358 2.082,-9.141 2.203,-12.778c-1.621,-2.044 -3.063,-0.371 -4.311,1.288c-0.927,1.23 -2.027,3.4 -2.617,4.37" style="fill:#fcded4;"/><path d="M537.982,551.334c0.08,0.131 0.113,0.349 0.128,0.441c0.73,4.258 -1.277,2.386 0.86,3.823c0.013,0.01 22.755,2.47 33.976,9.874c3.476,1.354 11.246,5.923 13.266,7.995c3.767,2.221 11.163,11.059 15.848,12.394c2.484,-4.46 -0.608,-8.74 -3.523,-12.155c-7.321,-8.575 -17.017,-14.494 -27.622,-18.339c-1.663,-0.603 -5.985,-1.889 -7.69,-1.91c-2.709,-0.394 -9.5,-1.743 -11.797,-3.346c-4.398,-0.108 -10.588,-2.388 -13.446,1.223" style="fill:#ffe0d6;"/><path d="M170.987,278.116l0.708,1.333c1.049,2.412 0.571,3.096 3.196,3.397c2.38,0.273 4.314,-1.216 5.56,-2.711c0.02,-2.381 -1.006,-5.017 -1.12,-8.388c-0.273,-8.037 1.025,-19.532 2.602,-27.046l1.873,-11.196c0.952,-3.666 2.12,-7.832 3.521,-11.508c1.648,-4.326 4.662,-6.558 3.63,-10.489c-5.679,-2.879 -17.81,25.351 -18.021,36.263l-2.527,19.536c-0.255,2.59 0.578,6.986 0.578,10.809" style="fill:#fcded4;"/><path d="M298.451,653.712l-1.34,10.209l1.935,2.707c0.646,-1.373 0.117,-0.042 0.598,-1.408c1.15,-3.272 0.904,-4.839 4.118,-7.594c-0.723,5.42 -2.616,10.688 -0.096,15.984c2.269,-2.159 4.233,-5.932 5.661,-8.909c1.509,2.112 -0.027,3.715 -0.3,6.988c3.117,-3.185 3.994,-6.974 6.186,-9.588c1.591,12.199 -1.505,10.942 -2.473,14.905c2.236,-0.91 0.201,0.364 2.065,-1.137c1.736,-1.396 2.728,-4.293 3.732,-6.009c1.489,-2.543 1.589,-1.113 3.063,-3.41c0.722,-1.125 1.358,-3.388 1.563,-4.982c0.382,-4.818 0.647,-9.166 -0.441,-13.859c-0.755,-3.254 -2.656,-8.912 -4.807,-10.595c-0.818,2.327 0.574,8.372 -0.181,11.922c-0.884,4.149 -2.548,6.212 -3.758,9.329c-1.532,-2.85 -1.453,-7.682 -3.181,-10.735c-1.003,1.888 -0.8,6.298 -2.666,10.592l-2.081,2.953c0.009,-4.165 0.952,-6.71 1.537,-10.558c0.237,-1.559 0.473,-3.642 0.479,-5.258c0.002,-0.597 -0.039,-1.815 -0.186,-2.373c-0.362,-1.377 -0.267,-0.974 -0.967,-1.658c-1.633,4.096 -0.704,4.86 -3.462,9.004c-1.844,2.77 -2.612,4.883 -4.588,7.888l-0.41,-4.408Z" style="fill:#fa2e00;"/><path d="M384.954,393.524c1.427,-1.875 3.945,-3.375 5.538,-5.19c10.752,-12.245 3.375,-4.758 8.809,-13.224c2.159,-3.363 3.98,-3.372 5.447,-6.112l5.113,-16.996c1.345,-4.009 4.749,-13.281 4.498,-17.569c1.982,-3.694 1.844,-8.347 1.521,-12.562c-3.561,3.855 -17.919,47.961 -23.059,56.519c-3.137,5.224 -12.641,14.511 -7.867,15.134" style="fill:#ffded1;"/><path d="M516.531,688.571c1.121,3.356 2.02,4.584 3.39,7.138c1.621,3.024 1.553,3.573 3.702,6.478c0.1,-0.128 0.201,-0.519 0.227,-0.433l0.513,-1.475c0.152,-0.763 0.159,-2.162 0.223,-3.014l2.529,4.474c4.327,-9.216 1.977,-9.473 3.747,-13.041l0.664,2.524c0.369,3.349 -0.45,7.341 1.278,10.248c3.069,-2.804 3.179,-6.193 5.933,-9.668c0.15,3.83 0.984,9.623 3.172,12.307l0.343,-5.365l0.339,2.56l1.864,-0.127l-0,-3.131c-1.125,-1.995 -2.458,-8.185 -3.46,-11.112c-2.148,-6.272 -2.041,-9.69 -3.944,-10.794c-0.763,5.691 0.814,11.644 -2.902,15.802c-2.979,-10.622 -0.18,-20.966 -11.641,-23.883c0.684,3.53 5.082,5.08 6.081,11.181c0.767,4.679 -0.557,10.312 -2.905,13.349c-1.839,-2.447 -1.175,-3.808 -2.086,-6.891l-2.153,6.622c-2.48,-5.629 0.191,-12.605 -4.775,-15.803c0.268,2.446 0.974,3.277 1.063,6.327c0.112,3.806 -0.893,5.536 -0.952,5.351c-0.029,-0.091 -0.16,0.255 -0.25,0.376" style="fill:#fc2e00;"/><path d="M576.539,590.251c4.426,2.398 8.099,1.295 14.015,1.295c-3.163,-2.669 -6.286,-0.502 -8.53,-3.884l6.124,-0.808c-0.733,-4.583 -6.419,-6.882 -7.525,-8.904c2.531,-0.925 5.801,1.823 8.433,2.466c-1.433,-1.285 -4.719,-4.089 -2.844,-6.949c-2.02,-2.072 -9.79,-6.641 -13.266,-7.995c0.994,2.281 1.994,2.965 3.173,4.714c-3.936,-0.628 -16.469,-2.597 -19.566,1.938c2.817,2.445 5.685,-0.075 13.484,2.888c3.638,1.382 7.855,4.624 8.525,7.47c-6.74,2.018 -9.68,-3.119 -13.226,-3.173c1.322,4.669 8.573,8.44 11.203,10.942" style="fill:#fa2e00;"/><path d="M651.995,489.464c9.478,11.14 12.789,23.779 15.388,42.426c0.538,2.947 1.238,4.548 1.039,7.498c1.712,2.126 1.817,10.381 2.764,13.369c5.99,-0.987 3.768,-10.93 3.097,-15.607c-0.897,-6.256 -2.573,-11.334 -3.61,-17.462c0.403,-2.772 -4.088,-12.807 -5.465,-15.916c-2.836,-6.402 -4.733,-9.251 -8.512,-13.39c-2.115,-1.619 -0.654,-1.449 -3.736,-2.743l-0.965,1.825Z" style="fill:#ffe0d6;"/><path d="M183.806,233.505l-1.873,11.196l1.659,-0.703c3.28,13.991 -1.949,23.039 -0.954,25.262l2.626,-3.343c2.494,-4.379 3.181,-7.982 4.427,-13.022c1.553,-6.284 0.603,-14.423 3.303,-20.096c6.62,3.74 2.424,14.092 3.884,18.151c1.735,-0.786 1.562,-0.7 3.446,-5.582c0.929,-2.406 1.413,-5.173 1.575,-8.088c0.315,-5.68 -1.128,-10.918 -2.827,-15.478c-2.235,2.731 -1.108,10.13 -0.867,13.255c-2.504,-0.798 -0.817,0.35 -2.273,-1.918c-0.416,-0.648 -0.728,-1.572 -1.26,-2.59c-1.156,-2.207 -1.477,-2.822 -3.817,-3.658c-0.693,2.213 -1.791,4.756 -2.255,7.388c-0.464,2.624 -0.069,6.388 -1.431,8.145c-2.026,-2.657 0.112,-6.418 -3.363,-8.919" style="fill:#fc2e00;"/><path d="M304.594,614.206c0.617,0.645 0.503,0.215 -0.272,0.456c-0.971,0 -0.681,-0.218 -0.681,0.839c1.299,1.031 0.233,1.656 -0.613,2.59l-0.283,1.294l-6.658,23.444c-1.062,5.157 -1.904,10.261 -2.528,15.506c-0.803,6.753 -0.256,10.341 -0.354,16.729c0.501,3.186 1.766,3.641 2.056,7.122l1.891,-0c1.013,-5.224 -0.434,-12.389 -0.041,-18.265l1.34,-10.209c0.236,-7.83 3.694,-19.037 5.99,-25.841c1.268,-3.757 2.591,-7.611 4.097,-11.368c1.293,-3.225 4.475,-7.94 3.641,-10.713l-0.737,-0.091c-3.067,1.572 -5.536,5.263 -6.848,8.507" style="fill:#fcded4;"/><path d="M297.111,663.921c-0.393,5.876 1.054,13.041 0.041,18.265c2.132,2.961 5.539,3.483 9.726,1.91c2.153,-0.809 3.961,-2.592 5.196,-4.562c1.425,-2.271 1.178,-0.224 0.666,-2.528c0.968,-3.963 4.064,-2.706 2.473,-14.905c-2.192,2.614 -3.069,6.403 -6.186,9.588c0.273,-3.273 1.809,-4.876 0.3,-6.988c-1.428,2.977 -3.392,6.75 -5.661,8.909c-2.52,-5.296 -0.627,-10.564 0.096,-15.984c-3.214,2.755 -2.968,4.322 -4.118,7.594c-0.481,1.366 0.048,0.035 -0.598,1.408l-1.935,-2.707Z" style="fill:#ffa838;"/><path d="M523.623,702.187c1.658,2.838 4.45,4.768 6.499,7.281c2.935,3.599 3.262,3.864 7.213,6.568c2.242,-1.916 2.336,-2.455 3.91,-4.716l0.664,-7.211c-2.188,-2.684 -3.022,-8.477 -3.172,-12.307c-2.754,3.475 -2.864,6.864 -5.933,9.668c-1.728,-2.907 -0.909,-6.899 -1.278,-10.248l-0.664,-2.524c-1.77,3.568 0.58,3.825 -3.747,13.041l-2.529,-4.474c-0.064,0.852 -0.071,2.251 -0.223,3.014l-0.513,1.475c-0.026,-0.086 -0.127,0.305 -0.227,0.433" style="fill:#ffa838;"/><path d="M668.422,539.388l-0.443,3.288l-5.076,-10.465c-2.037,2.153 -1.063,8.124 -1.629,11.181c-1.445,-2.094 -0.506,-2.044 -2.902,-3.123c-1.714,3.585 3.671,9.179 4.608,10.49c3.719,6.276 16.068,5.066 14.755,-7.019c-0.535,-4.914 -2.881,-10.956 -3.846,-18.215c-0.266,-2.002 -0.632,-4.147 -1.925,-5.657l-1.291,-0.18c1.037,6.128 2.713,11.206 3.61,17.462c0.671,4.677 2.893,14.62 -3.097,15.607c-0.947,-2.988 -1.052,-11.243 -2.764,-13.369" style="fill:#ff9c33;"/><path d="M652.754,535.868c0.244,3.066 1.941,6.191 3.527,8.565c1.652,2.474 3.624,5.55 6.699,6.326c-0.937,-1.311 -6.322,-6.905 -4.608,-10.49c2.396,1.079 1.457,1.029 2.902,3.123c0.566,-3.057 -0.408,-9.028 1.629,-11.181l5.076,10.465l0.443,-3.288c0.199,-2.95 -0.501,-4.551 -1.039,-7.498c-2.078,-2.605 -5.071,-20.797 -11.278,-21.604c-0.038,2.154 1.405,2.219 2.581,5.173c2.521,6.336 1.266,14.844 0.694,21.441c-3.94,-3.972 -4.835,-7.305 -5.717,-14.428c-1.98,4.471 -1.685,8.397 -0.909,13.396" style="fill:#fa2e00;"/><path d="M183.806,233.505c3.475,2.501 1.337,6.262 3.363,8.919c1.362,-1.757 0.967,-5.521 1.431,-8.145c0.464,-2.632 1.562,-5.175 2.255,-7.388c2.34,0.836 2.661,1.451 3.817,3.658c0.532,1.018 0.844,1.942 1.26,2.59c1.456,2.268 -0.231,1.12 2.273,1.918c-0.241,-3.125 -1.368,-10.524 0.867,-13.255c0.226,-6.038 -2.867,-6.9 -5.529,-9.646c-0.116,-0.085 -0.275,-0.388 -0.343,-0.262c-0.073,0.134 -0.308,-0.192 -0.41,-0.213c-0.906,-0.192 -0.854,-0.173 -1.833,-0.173c1.032,3.931 -1.982,6.163 -3.63,10.489c-1.401,3.676 -2.569,7.842 -3.521,11.508" style="fill:#ffa838;"/><path d="M590.554,591.546c3.31,0 4.682,-0.323 6.884,-1.386c1.948,-0.94 3.922,-1.956 4.622,-4.299c-4.685,-1.335 -12.081,-10.173 -15.848,-12.394c-1.875,2.86 1.411,5.664 2.844,6.949c-2.632,-0.643 -5.902,-3.391 -8.433,-2.466c1.106,2.022 6.792,4.321 7.525,8.904l-6.124,0.808c2.244,3.382 5.367,1.215 8.53,3.884" style="fill:#ffa838;"/><path d="M345.747,264.529c4.831,0.591 4.424,-0.525 4.724,-5.036c0.226,-3.384 0.467,-5.614 0.171,-9.114l-0.364,-1.72c-2.565,2.033 -1.484,3.104 -4.531,4.468c-3.836,-0.57 -5.858,-4.682 -7.006,-7.952l-1.409,-0c1.886,8.095 2.664,5.425 3.987,9.607c1.97,6.226 -0.433,2.983 4.428,9.747" style="fill:#e38763;"/><path d="M294.614,643.567c-1.298,4.637 -2.624,4.281 -3.67,10.399c-1.026,6.005 1.593,1.265 0.612,7.628c-0.523,3.391 0.039,8.417 0.956,11.69l0.693,1.78c0.098,-6.388 -0.449,-9.976 0.354,-16.729c0.624,-5.245 1.466,-10.349 2.528,-15.506l-1.473,0.738Z" style="fill:#ff3303;"/><path d="M670.673,519.688l1.291,0.18c-0.053,-2.682 -1.483,-7.055 -2.331,-9.507c-0.655,-1.894 -0.947,-2.474 -1.64,-4.186c-0.769,-1.901 -1.394,-2.529 -1.854,-4.875c-2.182,-2.307 -5.847,-11.749 -9.443,-10.918c3.779,4.139 5.676,6.988 8.512,13.39c1.377,3.109 5.868,13.144 5.465,15.916" style="fill:#0a0303;"/><path d="M301.733,620.68l-0.647,1.295l0,1.942l-1.479,0.648l-1.864,5.179c0.142,0.86 0.326,0.648 -0.54,0.648c-0.068,3.033 -1.646,8.045 -1.847,8.416l-0.174,1.942l-0.568,2.817l1.473,-0.738l6.658,-23.444l0.095,0l0,0.648l-1.107,0.647Z" style="fill:#0d0a0a;"/><path d="M314.031,457.53c2.52,-0.21 1.367,1.24 4.102,-4.314c1.062,-2.156 2.156,-3.463 2.371,-6.045c-3.719,0.866 -6.386,6.445 -6.473,10.359" style="fill:#ffe0d6;"/><path d="M541.909,704.109l-0.664,7.211c3.173,-2.184 3.21,-4.934 3.21,-10.143l-1.864,0.127l-0.339,-2.56l-0.343,5.365Z" style="fill:#0a0303;"/><path d="M563.225,553.457c-0.115,-0.114 -0.28,-0.467 -0.341,-0.348l-1.658,-1.006c-0.951,-0.386 -1.799,-0.52 -2.912,-0.964c-3.246,-1.295 -2.648,-1.028 -6.886,-1.028c2.297,1.603 9.088,2.952 11.797,3.346" style="fill:#050303;"/><path d="M504.325,655.641c-0,-32.93 37.541,-21.885 37.541,37.551c-0,34.899 -15.531,23.045 -24.387,6.265c-1.472,-2.791 -2.45,-4.951 -3.876,-7.777c-1.414,-2.801 -1.979,-4.842 -3.248,-7.757l-3.185,-8.468c-1.906,-4.841 -2.845,-13.265 -2.845,-19.814Zm-200.65,26.545c-14.658,-0 -7.804,-39.256 -5.196,-48.575c2.194,-7.839 8.943,-23.493 15.543,-27.184c9.944,-5.561 12.307,9.428 12.307,16.196c0,18.149 -2.92,36.408 -12.555,50.889c-1.999,3.004 -6.111,8.674 -10.099,8.674Zm339.81,-178.689c-0,-1.922 0.747,-7.253 1.249,-8.462c0.423,-1.017 0.968,-1.972 1.839,-2.693c2.435,-2.017 4.433,-2.17 7.003,-0.881c5.528,2.772 11.712,15.362 13.763,20.546c2.245,5.671 10.266,34.666 5.046,39.82l-1.068,0.874c-4.817,-0.401 -6.727,-2.285 -8.677,-4.917c-0.978,-1.32 -1.517,-1.572 -2.442,-2.736c-3.051,-3.843 -5.553,-7.226 -7.564,-11.858c-2.474,-5.697 -3.596,-5.362 -5.921,-13.499c-1.256,-4.394 -3.228,-11.213 -3.228,-16.194Zm-297.091,-236.31c-0.531,2.28 -0.41,2.994 -0.792,5.682c-0.177,1.244 -0.92,3.942 -1.082,5.391c-0.842,7.49 -2.987,15.101 -3.308,22.589c-0.19,4.422 -1.271,7.649 -1.313,11.635c-0.094,8.924 -1.272,15.405 -1.272,24.625c0,15.82 0.948,34.005 -2.726,49.067c-1.554,6.37 -2.283,14.94 -4.311,21.585l-10.677,41.114c-3.938,13.323 -9.071,26.194 -11.911,39.88c-3.496,16.847 -2.445,20.78 -4.535,34.309c-0.614,3.979 -0.145,8.18 -0.792,12.157c-2.459,15.136 -6.066,27.927 -10.118,41.672c-4.509,15.294 -12.678,51.598 -3.442,67.064c1.99,3.332 0.769,3.334 0.615,7.8c-0.3,8.696 -1.168,16.897 1.845,25.346c7.646,21.434 25.194,4.681 32.873,-18.458c3.254,-9.803 1.415,-3.707 11.409,-13.838l5.633,-7.314c8.629,-14.744 11.514,-43.052 16.466,-60.574c4.592,-16.249 9.189,-33.121 15.359,-48.732c0.647,-1.638 1.299,-2.634 2.061,-4.412c0.742,-1.733 1.159,-2.97 1.822,-4.652c5.708,-14.461 8.868,-23.07 13.24,-38.55l5.32,-19.928c1.335,-4.937 2.152,-10.617 3.99,-15.432c1.947,-5.102 3.732,-7.685 5.328,-14.093c2.304,-9.248 2.344,-11.07 9.833,-16.062c6.665,-4.442 8.402,-3.838 15.299,-4.12c2.916,-0.12 2.571,-0.67 5.802,-0.67c4.151,17.822 6.349,23.888 7.767,42.73c0.317,4.216 0.49,7.738 0.633,11.667l1.256,11.693c0.445,3.975 0.261,7.513 0.846,11.455c0.482,3.247 1.085,7.932 1.131,11.817c0.036,3.057 0.489,2.729 0.664,5.163l1.678,17.744c1.245,7.356 1.521,14.905 3.115,22.133c2.209,10.013 5.116,19.537 8.407,29.141c0.634,1.85 1.129,3.404 1.551,4.923c5.703,20.526 6.294,24.776 10.117,46.854l4.521,20.728c0.997,4.027 1.607,6.211 2.881,9.419c1.215,3.062 2.29,6.244 3.742,9.206c1.359,2.773 3.032,5.179 4.646,7.653c11.428,17.509 15.791,8.643 19.629,18.564c1.103,2.852 2.543,5.33 4.009,8.291c2.95,5.957 11.809,19.64 19.201,19.64c8.131,-0 10.172,-6.002 11.607,-12.992c1.309,-6.375 0.691,-15.2 0.691,-22.617c0.868,-2.858 9.369,-5.859 2.589,-31.076c-6.544,-24.34 -18.997,-59.728 -18.768,-83.52l-1.152,-27.334c-0.451,-2.921 0.081,-5.965 -0.145,-8.919c-0.194,-2.533 -0.457,-1.355 -0.647,-3.885l-0.91,-12.686c-1.96,-11.447 -2.067,-22.172 -4.319,-33.23c-2.726,-13.38 -4.192,-26.638 -6.574,-40.039l-3.224,-15.551c-0.523,-2.163 -3.039,-14.302 -2.449,-16.325c0.648,-2.221 8.338,-6.869 10.871,-8.548c14.179,-9.398 11.151,-7.615 21.343,-18.144c6.856,-7.083 12.198,-22.819 14.388,-32.224c0.416,0.479 0.404,0.237 0.85,1.093c2.966,5.691 5.914,18.914 7.43,24.939c2.243,8.912 4.096,18.374 8.111,26.848c3.718,7.845 6.958,15.324 11.567,22.743l10.11,15.785c3.533,5.672 10.697,23.387 13.159,30.214c3.01,8.343 3.933,19.281 7.276,27.683c3.019,7.585 8.483,15.943 12.695,22.263c2.348,3.521 4.373,6.936 8.128,9.351c3.422,2.2 8.485,3.597 13.879,3.597l6.222,8.021c1.987,2.672 4.035,6.255 6.594,8.294c3.596,2.867 6.848,5.413 11.698,3.029c9.884,-4.858 -0.468,-37.442 -2.609,-44.492c-1.029,-3.389 -0.699,-8.326 -1.437,-12.158l-2.791,-10.804c-5.638,-15.379 -8.632,-32.027 -15.966,-46.831c-1.744,-3.52 -4.846,-18.615 -6.487,-24.586l-5.015,-17.644c-0.808,-2.458 -1.886,-4.158 -2.621,-6.443c-0.737,-2.294 -0.956,-4.583 -1.913,-7.15c-1.714,-4.603 -4.744,-7.436 -5.577,-12.549c-0.919,-5.635 -2.565,-9.861 -3.33,-14.798c-2.64,-17.046 -10.732,-29.882 -9.801,-52.394c0.121,-2.914 0.677,-3.975 0.677,-7.747c0,-5.615 -1.209,-10.201 -1.293,-15.545c-0.072,-4.543 -1.95,-9.144 -2.765,-14.068c-3.761,-22.739 -0.008,-47.828 -2.482,-70.029c-1.834,-16.462 -4.537,-33.038 -7.753,-49.218c-1.319,-6.634 -12.537,-55.05 -11.37,-59.339c0.989,-3.637 4.858,-11.108 6.658,-14.742c2.247,-4.538 5.633,-10.905 6.053,-15.958c-1.514,-0.801 -1.685,-1.112 -3.883,-1.295l-4.742,12.738c-1.674,3.501 -3.123,9.564 -6.262,11.864c0,-4.672 -0.538,-3.228 -1.294,-6.474l-3.236,-0c-1.184,5.082 6.008,35.543 7.396,41.806l8.524,42.621c2.028,12.279 4.529,23.37 5.43,36.002l1.303,23.299c0,14.383 -0.95,26.449 0.009,40.132c0.885,12.623 6.956,31.523 5.118,47.218c-0.818,6.982 -0.034,13.468 1.611,20.505c2.103,8.993 4.009,16.623 6.472,25.25l4.339,18.967c1.712,11.002 4.878,9.336 6.667,16.639l4.025,12.159c3.142,9.406 6.648,20.641 8.392,30.451c0.959,5.392 2.459,10 4.691,14.731c0.538,1.141 0.923,2.265 1.302,3.23l4.22,11.316c1.348,4.594 2.289,8.188 3.726,12.459l5.484,17.823c0.706,2.506 1.494,4.321 1.55,6.865l-4.276,-5.434c-0.144,-0.161 -4.445,-5.572 -10.611,-5.572c-3.432,-0 -6.092,1.591 -8.159,4.139c-5.227,6.443 -2.281,20.073 -0.358,26.393c0.832,2.736 1.441,4.311 2.301,7.41c0.914,3.294 2.305,4.477 2.98,7.377c-11.731,0 -16.592,-11.697 -21.881,-20.196c-1.251,-2.011 -1.771,-3.307 -2.924,-5.491c-5.042,-9.552 -6.071,-15.532 -8.471,-25.841c-0.616,-2.651 -0.919,-4.704 -1.582,-6.834c-2.936,-9.435 -8.832,-21.838 -13.038,-30.336c-2.825,-5.707 -9.074,-14.865 -12.818,-20.845c-3.767,-6.016 -11.713,-23.624 -13.342,-29.384c-4.234,-14.973 -6.647,-32.392 -13.971,-46.236c0.908,-1.357 1.32,-1.472 2.338,-2.841c2.941,-3.954 6.903,-7.784 9.106,-11.609c0.716,-1.244 1.249,-2.097 2.039,-3.14c3.888,-5.128 3.625,-7.654 8.684,-12.679c7.427,-7.378 13.554,-23.467 8.902,-23.467c-3.706,-0 -1.138,13.462 -11.004,20.07l2.375,-13.24c0.205,-2.224 -0.295,-1.986 -1.728,-2.946c-2.98,2.185 -3.567,13.533 -4.368,17.643c-2.349,12.055 -10.525,18.402 -16.978,27.691c-4.909,7.067 -3.245,0.948 -7.133,15.525c-1.888,7.08 -4.487,13.08 -8.295,18.894c-2.221,3.393 -4.355,7.403 -7.394,10.084c-1.243,1.097 -1.535,0.905 -2.935,2.244c-1.201,1.148 -1.573,1.76 -2.994,2.832l-12.956,9.053c-2.651,1.81 -4.074,3.332 -6.85,4.802c-0,-4.352 -0.007,-7.716 0.499,-11.155c0.289,-1.97 0.164,-3.326 0.515,-5.311c0.328,-1.857 0.673,-3.603 0.85,-4.976c0.576,-4.458 1.284,-5.771 2.06,-9.594c1.266,-6.241 4.769,-6.763 1.901,-11.047c-2.217,1.173 -1.418,0.251 -2.624,2.555c-2.746,5.244 -3.672,11.262 -4.757,17.254c-2.683,14.808 -2.741,32.363 1.162,46.623c0.398,1.457 0.468,2.873 0.762,4.416l6.904,41.652c0.44,2.489 1.434,5.005 1.77,7.94c0.368,3.213 0.863,5.122 1.389,8.323c2.565,15.623 4.169,37.914 4.429,53.837c0.055,3.344 0.692,4.892 0.675,9.036c-0.054,12.929 1.014,32.167 4.607,43.949l14.546,53.43c5.517,19.525 0.911,18.754 0.911,24.986l-0.647,-0c-0,-7.627 -2.632,-15.892 -5.267,-22.572c-1.44,-3.65 -3.086,-5.814 -5.213,-9.029c-11.384,-17.202 -34.181,-17.592 -34.181,11.531c-0,9.22 2.621,18.544 5.825,24.602c-18.535,-4.32 -26.382,-47.542 -28.855,-61.777c-2.721,-15.668 -5.222,-30.963 -10.439,-45.885c-4.731,-13.533 -10.731,-31.876 -11.192,-45.778c-0.084,-2.549 -0.575,-7.274 -1.029,-9.976l-7.434,-83.204c-1.921,-9.364 -5.54,-28.503 -10.166,-35.799c-0.718,-1.133 -4.314,-6.332 -5.319,-6.332c-5.761,-0 4.136,8.858 4.53,13.595c-12.717,0 -12.88,0.617 -23.948,6.475c0.608,-2.609 11.282,-18.776 6.473,-18.776c-2.157,0 -1.699,1.055 -2.405,2.775c-0.579,1.409 -0.972,2.137 -1.688,3.49c-4.461,8.424 -6.295,13.003 -9.585,22.784c-1.817,5.399 -2.759,10.909 -5.321,16.043c-3.403,6.819 -11.113,40.228 -14.094,49.997c-0.779,2.551 -1.28,5.301 -2.25,8.109c-0.974,2.82 -1.936,5.216 -3.048,7.957c-1.224,3.017 -1.673,5.263 -3.034,7.971c-3.71,7.385 -6.251,15.217 -9.323,23.046c-4.03,10.271 -7.141,22.199 -9.968,32.759c-0.819,3.059 -1.737,5.003 -2.454,7.905l-7.643,35.085c-0.352,1.613 -0.695,2.759 -1.038,4.141c-0.373,1.499 -0.58,3.107 -1.043,4.783c-0.765,2.764 -1.42,5.36 -2.438,7.92c-1.251,3.144 -2.428,4.345 -4.019,6.987l-4.793,6.212c-2.007,2.748 -3.042,3.315 -5.825,5.179c2.363,-10.145 7.448,-46.614 -10.356,-46.614c-13.33,-0 -25.053,30.285 -25.243,38.845c-7.378,-5.407 -0.458,-46.255 1.029,-51.411l5.369,-17.938c3.094,-9.499 7.794,-28.354 8.48,-38.132c1.241,-17.696 0.98,-24.865 4.688,-42.572c3.52,-16.811 9.706,-31.344 14.355,-47.795c2.547,-9.014 10.527,-36.124 11.41,-43.617c0.761,-6.45 2.827,-13.334 3.71,-19.597c0.658,-4.663 0.657,-10.074 1.3,-14.238c1.057,-6.844 0.145,-23.092 0.145,-30.931c-0,-19.916 2.73,-37.641 5.995,-56.804c3.894,-22.857 11.481,-64.089 11.481,-83.04l-0,-9.064c-1.335,-0.706 -1.534,-0.898 -3.237,-1.295c-1.054,1.575 -1.28,1.121 -0.951,3.456c0.27,1.916 0.422,3.556 0.328,5.63c-0.127,2.793 -0.484,2.067 -0.671,4.51c-0.13,1.7 -0.007,4.065 0.003,5.83c0.104,17.444 -8.417,44.205 -8.417,58.265c-7.792,-5.219 -8.601,-25.87 -8.441,-35.634c0.197,-12.02 3.444,-25.566 3.932,-38.15c0.319,-8.233 1.632,-33.209 0.48,-40.665c-1.092,-7.073 0.37,-12.974 0.789,-20.219c0.431,-7.459 5.387,-28.739 7.688,-36.334l14.409,-41.266c1.997,-5.401 11.778,-27.257 12.211,-32.458l-3.884,-0c-4.974,9.403 -14.434,36.781 -18.314,47.718l-7.45,21.035c-2.784,10.378 -5.622,20.269 -7.319,30.876l-2.445,16.978c-1.339,11.212 0.618,24.05 0.595,36.204l-5.206,61.479c0.002,10.616 2.559,25.565 9.229,33.515c1.084,1.292 1.435,1.261 2.431,2.748"/><path d="M488.143,375.954l1.295,0c-0,-14.853 -4.063,-68.921 -2.087,-81.72c0.321,-2.077 0.087,-4.246 0.119,-6.356l7.397,-62.522c0.36,-2.074 0.715,-3.457 1.055,-5.44c0.446,-2.608 1.293,-3.093 -0.659,-4.523c-1.169,2.437 -3.042,17.543 -4.05,22.493c-1.176,5.775 -3.634,23.721 -3.694,29.324c-0.032,2.995 -0.458,2.72 -0.651,5.175c-0.527,6.687 -1.172,13.809 -1.909,20.103c-0.423,3.613 0.222,6.85 -0.438,10.569c-1.163,6.553 0.714,54.619 2.611,62.903c0.566,2.473 1.011,7.297 1.011,9.994"/><path d="M548.985,164.894l-0.022,18.151c0.391,9.467 3.714,33.629 5.198,43.357c1.199,7.861 6.119,23.85 10.352,31.08c0.882,1.506 3.723,8.346 3.89,10.352l1.295,0c-0.061,-2.73 -6.922,-22.79 -7.86,-25.804c-1.249,-4.01 -2.79,-9.039 -3.641,-13.191c-1.931,-9.423 -2.679,-13.246 -3.405,-22.491c-0.131,-1.662 -0.535,-5.446 -0.891,-7.525c-2.442,-14.266 -1.776,-30.345 -2.275,-44.987c-0.112,-3.277 0.458,-1.863 -1.346,-3.185c-0.95,1.981 -1.295,10.833 -1.295,14.243"/><path d="M385.229,393.435c3.022,-0.704 5.005,-2.507 7.512,-4.14c1.572,-1.024 2.032,-1.142 3.13,-2.697c5.932,-8.399 18.421,-34.95 19.134,-44.956c0.132,-1.857 -0.141,-3.989 0.022,-5.852c0.289,-3.303 1.896,-3.002 -1.318,-3.861c-5.338,22.917 -2.468,14.056 -10.617,34.053c-1.888,4.632 -10.713,21.662 -14.873,24.617c-1.625,1.154 -2.253,0.8 -2.99,2.836"/><path d="M510.797,293.731c0,12.628 -0.5,18.989 -5.084,30.523c-4.148,10.438 0.574,8.546 3.061,1.767c0.9,-2.452 1.964,-4.942 2.552,-7.159c6.656,-25.124 -0.529,-34.61 -0.529,-49.085l-1.294,-0c-0,3.973 -0.239,8.284 0.384,11.916c0.663,3.857 0.91,7.909 0.91,12.038"/><path d="M353.514,530.041c-0.202,-9.071 -5.513,5.895 -27.408,-6.251c-8.679,-4.815 -6.549,-7.236 -11.428,-7.345c0.074,3.293 3.487,6.426 6.072,8.171l6.781,3.576c3.745,1.638 9.051,4.355 13.684,4.336c4.589,-0.018 8.311,-1.558 12.299,-2.487"/><path d="M331.507,515.15c0,2.825 8.312,5.78 10.607,6.224c3.006,0.581 4.391,0.643 7.508,0.927c3.244,0.295 4.438,1.912 4.539,-2.619c-3.603,-0.839 -7.474,-0.815 -11.295,-1.65c-3.67,-0.802 -11.359,-6.647 -11.359,-2.882"/><path d="M313.384,555.938c-0.041,0.093 -1.263,-0.008 1.076,2.106c6.391,5.775 17.574,9.548 26.756,9.548l0,-1.295c-5.892,-0.131 -20.08,-5.777 -25.133,-9.198c-2.954,-2 -1.872,-1.527 -2.699,-1.161"/><path d="M598.824,394.729c2.77,-0.23 4.975,-3.473 11.002,-6.475c2.001,-0.996 3.761,-1.653 5.829,-2.587c1.092,-0.493 1.724,-0.921 3.046,-1.484c2.788,-1.188 1.17,0.44 2.777,-1.755c-6.338,0 -9.725,1.217 -13.734,3.743c-1.993,1.255 -2.935,2.246 -4.542,3.873c-3.694,3.738 -3.524,1.487 -4.378,4.685"/><path d="M334.096,579.245l0,-1.295c-8.451,-1.969 -9.906,-3.556 -16.821,-8.424c-1.72,-1.21 -3.535,-2.694 -5.833,-3.229c0.26,3.128 0.486,1.908 3.728,4.688c1.755,1.506 3.515,2.507 5.331,3.731c3.206,2.159 8.385,4.413 13.595,4.529"/><path d="M479.729,548.169l-0,1.295c3.826,1.836 7.526,1.942 11.651,1.942c2.94,-0 3.654,-1.127 3.883,-3.885c-4.784,0 -6.715,0.724 -10.215,-0.141c-0.254,-0.063 -5.319,-2.241 -5.319,0.789"/><path d="M502.383,610.969l-10.356,-0.647l-0,1.942c6.776,-0 5.909,1.28 13.885,0.247c2.079,-0.269 9.088,0.928 9.842,-1.822c0.91,-3.321 -7.914,0.28 -13.371,0.28"/><path d="M605.944,401.204c2.776,-0.231 6.985,-2.91 10.449,-4.44c1.932,-0.853 0.489,-0.281 2.101,-1.135c2.907,-1.542 2.637,0.047 4.279,-2.194c-5.704,-0 -6.433,-0.336 -10.587,1.711c-2.878,1.418 -5.932,2.33 -6.242,6.058"/><path d="M629.245,467.888c3.164,-0.263 9.939,-5.004 14.486,-6.228c3.517,-0.946 3.668,1.069 5.579,-1.541c-6.272,-1.461 -18.729,2.766 -20.065,7.769"/><path d="M609.828,408.325c5.786,0 12.539,-3.378 15.741,-6.365c2.176,-2.029 -0.011,-1.675 -0.722,-1.317l-6.166,3.589c-1.483,0.707 -2.991,1.308 -4.723,1.75c-3.454,0.882 -3.324,-0.677 -4.13,2.343"/><path d="M508.208,601.258l5.826,-1.943l-9.732,-0.624c-3.719,-0.143 -5.349,-1.318 -9.686,-1.318c1.456,1.988 11.482,3.885 13.592,3.885"/><path d="M146.079,552.343c17.93,0.765 20.496,5.419 34.025,10.036c10.127,3.456 24.352,5.638 32.876,10.392c0.19,8.486 -10.513,3.79 -15.331,1.863c-5.944,-2.378 -11.688,-4.635 -17.703,-6.928c-5.739,-2.189 -3.777,0.443 -17.988,-5.959c-5.305,-2.39 -7.448,-2.783 -12.205,-5.905c-4.603,-3.021 -2.55,-2.227 -3.674,-3.499Zm57.227,-284.27c-0.499,10.953 -3.51,12.772 -14.866,15.833l-8.498,2.226c5.634,0.544 3.942,5.358 2.943,9.542c1.457,1.136 2.618,0.832 2.322,3.157c-0.451,3.538 -2.395,0.201 -4.545,3.252l-2.384,5.203c3.393,1.799 5.332,2.898 5.93,7.586l-2.602,0.054c-0.224,0.019 -0.365,0.056 -0.585,0.079c-4.98,0.499 -3.16,-0.302 -7.444,-0.628c-8.276,9.99 -8.342,16.116 -20.093,26.584c-1.452,1.293 -2.701,1.977 -4.295,3.479l-10.031,12.626c-4.201,4.501 -25.024,11.972 -31.276,14.058c-3.872,1.291 -7.768,2.553 -11.55,3.967l-20.924,10.151c-3.499,2.098 -6.393,3 -10.036,4.848c-14.853,7.538 -32.136,5.881 -38.306,7.651c-3.462,0.993 -4.947,6.453 -9.497,2.815c-1.98,-2.413 2.124,-4.304 -3.218,-10.266c-0.779,3.115 -1.274,7.637 0.173,10.743c2.673,5.738 3.119,1.718 1.019,8.474c-0.977,3.143 -1.631,19.086 -0.918,23.795c1.91,12.623 -1.169,23.643 5.467,45.03c3.119,10.052 6.947,28.667 9.794,40.055c6.174,24.697 8.393,33.316 17.937,57.16c5.461,13.643 8.616,21.168 15.504,34.991c3.066,6.153 6.075,9.983 9.551,15.696c2.075,3.412 2.991,4.146 5.368,6.932c4.481,5.252 10.508,16.564 14.806,22.74c1.8,2.587 3.262,4.619 5.155,7.145c2.804,3.741 6.205,6.307 9.163,9.609l1.192,1.398c4.343,5.117 4.489,8.345 6.705,10.07c1.238,-2.544 3.031,-2.424 5.531,-3.604c2.337,-1.102 3.95,-2.318 6.005,-3.688c4.568,-3.044 9.384,-4.173 6.024,-10.858c-3.615,-7.194 -13.503,-19.078 -11.847,-25.495c3.085,-1.427 8.058,0.271 15.106,1.015c3.488,0.369 5.118,0.85 7.791,1.219c1.93,0.267 7.159,-0.03 9.912,0.122l-4.787,-2.121c-1.754,-0.555 -2.979,-0.937 -4.856,-1.601c-3.195,-1.131 -6.451,-2.133 -9.56,-3.374c-11.678,-4.659 -26.991,-11.927 -37.617,-15.472c-3.431,-1.145 -6.186,-2.053 -9.655,-3.277c-3.818,-1.348 -7.386,-1.912 -8.05,-5.216l13.59,3.486c5.231,1.414 10.347,1.543 15.732,2.608l56.878,14.794c7.138,2.295 23.732,6.049 31.049,5.298c-1.373,5.5 -6.071,4.662 -9.597,7.483c7.885,-0.684 20.152,-7.21 25.277,-10.74c6.532,-4.499 5.505,-20.368 3.558,-29.744c-2.267,-10.917 -4.521,-13.009 -14.92,-20.602c-12.216,-8.92 -7.866,-4.904 -16.701,-9.835c-2.025,-1.13 -4.398,-1.881 -4.799,-4.345c2.53,-1.223 6.057,1.607 8.5,2.572c13.457,5.317 12.87,5.69 25.285,12.25c1.361,0.719 7.098,3.716 8.532,3.896c2.968,0.373 25.287,-8.963 27.871,-10.091c9.019,-3.94 8.78,-3.888 11.412,-13.832c1.97,-7.44 3.114,-13.429 3.872,-21.431c0.852,-8.995 -6.15,-24.528 -10.454,-33.425c-1.24,-2.563 -1.592,-2.005 -2.477,-4.034c1.573,-9.124 14.302,-10.452 25.052,-8.733c8.922,1.427 18.992,5.419 27.431,8.029c27.264,8.433 48.575,20.507 76.549,30.91c9.865,3.668 18.6,4.451 29.415,6.288c11.015,1.87 29.593,8.011 42.152,11.439c4.228,1.155 10.976,2.027 12.387,5.804c2.38,0.2 3.244,0.848 5.744,1.36c2.177,0.446 3.561,0.597 5.716,1.404c8.473,3.175 27.149,5.867 28.946,6.655c1.774,0.778 3.608,3.259 9.605,4.636c5.641,1.296 11.014,2.817 15.997,5.364c3.168,1.619 6.142,3.006 9.941,4.299c5.678,1.933 6.121,3.349 10.767,0.236c-2.037,-2.781 -6.345,-3.233 -11.006,-8.414c-1.615,-1.795 -0.199,-0.664 -2.597,-1.933c-5.141,-2.721 -0.782,-1.397 -4.351,-5.359c-2.719,-3.019 -4.141,-3.31 -2.778,-10.849c0.576,-3.188 -0.52,-0.655 1.415,-3.126c0.61,-0.779 1.741,-2.322 2.384,-2.794c1.024,-0.753 10.158,-3.875 15.213,-2.089c3.793,1.34 5.229,0.295 8.566,1.172c2.128,0.559 4.182,2.244 6.657,3.053c5.945,1.943 1.291,-0.5 6.845,2.92c2.998,1.847 12.907,0.115 -1.08,-13.865c-8.17,-8.166 -2.21,-1.512 -8.912,-10.397c-2.778,-0.226 -45.466,-16 -49.362,-17.393c-3.922,-1.403 -7.617,-3.547 -11.735,-5.106c-11.604,-4.393 -25.08,-9.866 -36.794,-13.025c-8.924,-2.407 -18.35,-5.238 -28.298,-5.127c-9.798,0.109 -20.195,-1.624 -29.073,-4.222c-8.82,-2.581 -17.376,-4.648 -26.275,-7.384c-4.204,-1.293 -8.688,-3.073 -12.614,-4.202c-4.124,-1.186 -8.918,-1.985 -13.021,-3.11c-30.47,-8.353 -35.216,-10.208 -62.157,-21.355c-4.033,-1.669 -8.003,-3.199 -12.155,-4.691c-8.441,-3.033 -16.623,-5.001 -24.677,-8.338c-9.027,-3.739 -17.731,-4.068 -26.314,-7.361c-10.035,-3.85 -15.64,-4.382 -26.659,-6.34c-11.657,-2.072 -44.937,-9.316 -50.595,-15.242c-1.658,-9.447 5.465,-16.543 9.455,-19.918c7.574,-6.405 4,-2.39 9.673,-5.225l9.688,-4.133c0.089,-0.231 0.341,-0.167 0.489,-0.282c-0.585,-0.846 -0.492,-0.153 1.423,-2.001l7.156,-7.833c11.789,-13.82 6.925,-8.754 16.048,-23.436c2.632,-4.235 3.735,-9.038 5.05,-14.437c7.018,-28.804 -2.535,-44.198 -6.65,-66.9l-1.227,3.038Z" style="fill:#ffbfa6;"/><path d="M186.916,645.447c-7.251,0.841 -9.197,1.488 -17.233,0.623c-5.773,-0.622 -10.813,-2.209 -15.894,-3.231c-2.753,-0.152 -7.982,0.145 -9.912,-0.122c-2.673,-0.369 -4.303,-0.85 -7.791,-1.219c-7.048,-0.744 -12.021,-2.442 -15.106,-1.015c-1.656,6.417 8.232,18.301 11.847,25.495c3.36,6.685 -1.456,7.814 -6.024,10.858c-2.055,1.37 -3.668,2.586 -6.005,3.688c-2.5,1.18 -4.293,1.06 -5.531,3.604l0.987,1.656c4.554,7.394 10.052,4.372 18.225,2.613c8.364,-1.799 15.362,-2.241 22.642,-5.191c7.875,-3.191 8.539,-2.356 12.857,-7.857c1.758,-2.241 1.663,-1.625 2.883,-4.238c2.459,-5.264 7.845,-12.259 12.246,-15.59l14.811,-5.903c2.506,-0.746 3.352,-0.256 5.877,-1.243c1.959,-0.766 2.452,-1.244 4.267,-2.206c2.92,-1.548 1.969,-0.662 3.937,-3.184c5.095,-6.531 6.293,-9.6 8.913,-18.924c0.479,-1.703 1.036,-3.285 1.449,-5.672c0.399,-2.306 0.128,-4.377 0.785,-6.336c4.937,-14.707 8.393,-8.582 10.567,-17.917c3.808,2.791 1.148,4.085 10.232,1.82c3.338,-0.832 8.282,-2.573 11.35,-4.187c2.445,-1.286 2.718,-1.773 4.317,-3.451c2.306,-2.42 2.643,-1.367 4.641,-3.127c1.611,-1.418 4.879,-7.424 5.452,-10.093c1.057,-4.919 0.282,-7.657 0.244,-13.342c-0.053,-8.201 1.623,-6.701 3.125,-12.414c1.82,-6.921 1.344,-5.317 5.785,-9.752l10.689,-11.968c1.564,-1.143 3.416,-1.397 5.373,-2.395c2.205,-1.124 -0.326,-0.319 2.714,-1.17c10.848,-3.036 14.575,-0.484 27.595,3.788c2.459,0.807 3.629,1.308 5.591,2.177c5.92,2.621 17.488,6.39 21.959,9.112c5.026,3.06 5.442,4.566 10.597,4.189c4.62,-0.338 9.474,3.951 10.791,-0.981c2.272,0.189 3.129,0.786 5.214,1.258c10.321,2.337 28.457,4.235 40.464,6.788c6.357,1.352 9.003,3.971 15.164,4.255c7.738,0.357 23.122,8.134 27.848,5.18c-1.411,-3.777 -8.159,-4.649 -12.387,-5.804c-12.559,-3.428 -31.137,-9.569 -42.152,-11.439c-10.815,-1.837 -19.55,-2.62 -29.415,-6.288c-27.974,-10.403 -49.285,-22.477 -76.549,-30.91c-8.439,-2.61 -18.509,-6.602 -27.431,-8.029c-10.75,-1.719 -23.479,-0.391 -25.052,8.733c0.885,2.029 1.237,1.471 2.477,4.034c4.304,8.897 11.306,24.43 10.454,33.425c-0.758,8.002 -1.902,13.991 -3.872,21.431c-2.632,9.944 -2.393,9.892 -11.412,13.832c-2.584,1.128 -24.903,10.464 -27.871,10.091c-1.434,-0.18 -7.171,-3.177 -8.532,-3.896c-12.415,-6.56 -11.828,-6.933 -25.285,-12.25c-2.443,-0.965 -5.97,-3.795 -8.5,-2.572c0.401,2.464 2.774,3.215 4.799,4.345c8.835,4.931 4.485,0.915 16.701,9.835c10.399,7.593 12.653,9.685 14.92,20.602c1.947,9.376 2.974,25.245 -3.558,29.744c-5.125,3.53 -17.392,10.056 -25.277,10.74" style="fill:#e38563;"/><path d="M167.751,401.851l0.193,0.193c-0.012,-0.013 -0.257,-0.128 -0.193,-0.193Zm13.755,-22.209c-0.148,0.115 -0.4,0.051 -0.489,0.282l-9.688,4.133c-5.673,2.835 -2.099,-1.18 -9.673,5.225c-3.99,3.375 -11.113,10.471 -9.455,19.918c5.658,5.926 38.938,13.17 50.595,15.242c11.019,1.958 16.624,2.49 26.659,6.34c8.583,3.293 17.287,3.622 26.314,7.361c8.054,3.337 16.236,5.305 24.677,8.338c4.152,1.492 8.122,3.022 12.155,4.691c26.941,11.147 31.687,13.002 62.157,21.355c4.103,1.125 8.897,1.924 13.021,3.11c3.926,1.129 8.41,2.909 12.614,4.202c8.899,2.736 17.455,4.803 26.275,7.384c8.878,2.598 19.275,4.331 29.073,4.222c9.948,-0.111 19.374,2.72 28.298,5.127c11.714,3.159 25.19,8.632 36.794,13.025c4.118,1.559 7.813,3.703 11.735,5.106c3.896,1.393 46.584,17.167 49.362,17.393c-0.485,-6.265 -13.3,-9.129 -20.629,-11.849c-4.727,-1.753 -5.735,-4.367 -10.053,-6.13c-10.731,-4.38 -25.003,-11.778 -34.132,-15.063c-3.879,-1.396 -7.448,-3.255 -11.479,-4.704c-3.998,-1.437 -8.411,-2.541 -12.661,-4.169c-7.489,-2.868 -5.129,-0.568 -11.647,-4.536c-1.838,-1.119 -13.997,-3.497 -18.842,-5.107l-12.503,-4.327c-11.905,-4.229 -10.132,-2.608 -19.529,-5.068c-2.815,-0.737 -2.874,-0.883 -6.365,-1.402c-6.324,-0.941 0.467,-1.548 -13.66,-2.522c-2.408,-0.167 -4.533,-0.953 -6.738,-1.677c-8.476,-2.78 -25.864,-6.414 -31.438,-9.341c-2.138,-1.123 -2.884,-1.644 -5.672,-2.744c-4.192,-1.653 -7.401,-2.976 -11.751,-4.431l-25.181,-7.832c-5.814,-1.359 -6.36,-1.147 -12.852,-3.33l-19.006,-5.591c-13.18,-2.243 -41.386,-15.741 -63.397,-18.162c-2.922,-0.321 -4.16,-1.159 -7.174,-1.286c-3.684,-0.154 -4.705,0.901 -7.198,0.166l-11.834,-4.391c-4.645,-1.934 -16.318,-2.244 -19.143,-6.101c3.016,-0.068 3.415,-0.762 5.178,-1.943c-0,-6.732 0.412,-6.772 3.505,-10.737c4.819,-6.177 6.975,-6.201 11.295,-10.067c0.14,-0.125 0.544,-0.485 0.68,-0.615c0.609,-0.586 0.099,-0.014 0.957,-0.985l4.228,-6.778c0.571,-0.947 -0.057,-0.095 0.904,-1.043l2.874,-2.793l-1.084,-0.606c-3.54,5.941 -6.272,5.537 -8.15,6.727c-2.758,1.746 -3.265,4.496 -7.927,5.983" style="fill:#ffded4;"/><path d="M14.351,390.29c5.342,5.962 1.238,7.853 3.218,10.266c4.55,3.638 6.035,-1.822 9.497,-2.815c6.17,-1.77 23.453,-0.113 38.306,-7.651c3.643,-1.848 6.537,-2.75 10.036,-4.848l20.924,-10.151c3.782,-1.414 7.678,-2.676 11.55,-3.967c6.252,-2.086 27.075,-9.557 31.276,-14.058l10.031,-12.626c1.594,-1.502 2.843,-2.186 4.295,-3.479c11.751,-10.468 11.817,-16.594 20.093,-26.584c4.284,0.326 2.464,1.127 7.444,0.628c0.22,-0.023 0.361,-0.06 0.585,-0.079l2.602,-0.054c-0.598,-4.688 -2.537,-5.787 -5.93,-7.586l2.384,-5.203c2.15,-3.051 4.094,0.286 4.545,-3.252c0.296,-2.325 -0.865,-2.021 -2.322,-3.157c0.999,-4.184 2.691,-8.998 -2.943,-9.542c-4.201,-0.143 -7.48,3.127 -8.584,-2.759c-5.411,1.586 -2.933,5.819 -4.456,11.452c-1.185,4.386 -6.76,11.089 -8.915,15.684c-1.465,3.125 -1.581,2.125 -4,4.416c-15.8,14.961 -7.679,10.36 -15.2,17.814c-8.556,8.481 -9.486,8.109 -20.209,12.804c-12.578,5.508 -12.567,4.794 -24.146,8.867c-10.144,3.569 -13.616,6.112 -22.693,10.319c-2.621,1.215 -3.418,1.47 -5.64,2.775c-8.47,4.975 -20.214,9.213 -32.336,9.091c-10.876,-0.109 -19.412,2.896 -19.412,13.695" style="fill:#ffe0d6;"/><path d="M203.998,246.782c-1.953,2.828 -0.265,5.753 -0.165,9.449c0.096,3.571 -0.298,8.125 -0.527,11.842l1.227,-3.038c4.115,22.702 13.668,38.096 6.65,66.9c-1.315,5.399 -2.418,10.202 -5.05,14.437c-9.123,14.682 -4.259,9.616 -16.048,23.436l-7.156,7.833c-1.915,1.848 -2.008,1.155 -1.423,2.001c4.662,-1.487 5.169,-4.237 7.927,-5.983c1.878,-1.19 4.61,-0.786 8.15,-6.727l1.084,0.606l2.094,-0c0.871,-1.646 0.864,-1.711 2.007,-3.173c1.585,-2.027 1.048,-1.121 2.602,-2.576c1.648,-1.541 3.078,-3.905 4.631,-5.727c6.351,-7.45 1.856,2.544 8.034,-13.329c2.756,-7.083 3.824,-4.087 6.285,-15.078c3.633,-16.213 0.957,-17.038 1.022,-29.377l-1.369,-19.348c-0.548,-3.216 -0.943,-6.047 -1.918,-9.087c-4.038,-12.589 -7.646,-14.385 -11.45,-20.271c-1.361,-2.106 -3.682,-5.079 -6.607,-2.79" style="fill:#e38763;"/><path d="M153.789,642.839c5.081,1.022 10.121,2.609 15.894,3.231c8.036,0.865 9.982,0.218 17.233,-0.623c3.526,-2.821 8.224,-1.983 9.597,-7.483c-7.317,0.751 -23.911,-3.003 -31.049,-5.298l-56.878,-14.794c-5.385,-1.065 -10.501,-1.194 -15.732,-2.608l-13.59,-3.486c0.664,3.304 4.232,3.868 8.05,5.216c3.469,1.224 6.224,2.132 9.655,3.277c10.626,3.545 25.939,10.813 37.617,15.472c3.109,1.241 6.365,2.243 9.56,3.374c1.877,0.664 3.102,1.046 4.856,1.601l4.787,2.121Z" style="fill:#ffded4;"/><path d="M146.079,552.343c1.124,1.272 -0.929,0.478 3.674,3.499c4.757,3.122 6.9,3.515 12.205,5.905c14.211,6.402 12.249,3.77 17.988,5.959c6.015,2.293 11.759,4.55 17.703,6.928c4.818,1.927 15.521,6.623 15.331,-1.863c-8.524,-4.754 -22.749,-6.936 -32.876,-10.392c-13.529,-4.617 -16.095,-9.271 -34.025,-10.036" style="fill:#ffded4;"/><path d="M171.358,283.373c1.104,5.886 4.383,2.616 8.584,2.759l8.498,-2.226c11.356,-3.061 14.367,-4.88 14.866,-15.833c0.229,-3.717 0.623,-8.271 0.527,-11.842c-0.1,-3.696 -1.788,-6.621 0.165,-9.449c-0.154,-2.183 0.084,-1.426 -0.648,-2.902c-2.016,1.477 -1.195,3.312 -1.674,6.742c-0.431,3.088 -0.053,5.732 -0.302,8.762c-0.316,3.864 -0.837,13.067 -2.109,16.018c-1.44,3.344 -15.412,6.397 -15.585,6.415c-3.111,0.319 -0.302,0.174 -3.083,-0.901c-2.595,-1.003 -3.833,0.249 -7.02,0.514c-0,-4.586 -0.993,-7.562 -0.3,-11.944c1.92,-12.139 -0.237,-15.348 2.932,-29.447c0.533,-2.374 1.188,-3.056 1.251,-5.871c-3.303,0.883 -3.437,4.467 -4.598,10.292l-3.041,26.551c0.383,13.038 3.488,9.535 1.537,12.362"/><path d="M533.451,561.765c0,-9.307 7.447,-9.064 15.534,-9.064c11.309,-0 29.294,8.481 37.291,14.494l5.59,4.767c1.847,1.869 3.58,3.266 5.032,5.325c12.744,18.071 -17.179,12.206 -25.648,10.117c-4.208,-1.039 -5.871,-2.054 -9.84,-3.106c-4.518,-1.198 -13.49,-5.457 -17.23,-8.015c-1.46,-0.999 -1.92,-1.393 -3.356,-2.47c-1.912,-1.433 -1.638,-1.776 -3.023,-3.45c-1.112,-1.344 -1.91,-2.028 -2.759,-3.715c-0.661,-1.314 -1.591,-3.418 -1.591,-4.883Zm-517.158,-182.574c0,1.452 0.512,1.421 1.295,2.59c2.651,-0.708 -0.011,-0.061 2.268,-0.968c0.821,-0.327 2.577,-0.731 3.055,-0.829c2.839,-0.581 3.177,-0.566 6.309,-0.811c2.535,-0.199 3.092,-0.653 6.482,-0.638c2.188,0.01 5.702,0.217 7.743,-0.024c9.744,-1.151 21.913,-8.316 31.299,-12.07c7.209,-2.884 12.813,-6.984 20.548,-8.581c11.226,-2.317 22.175,-6.063 31.296,-12.721c3.854,-2.812 14.518,-8.972 16.853,-12.277c3.988,-5.647 6.901,-13.415 14.505,-14.625c9.399,-1.496 17.01,-2.493 26.634,-2.493c-0.742,-2.778 -0.119,-1.586 -3.037,-2.142c-6.488,-1.237 -14.845,-0.448 -21.559,-0.448c0.261,-3.134 2.635,-6.173 4.686,-8.261c2.731,-2.782 11.563,-2.098 16.026,-2.098c1.948,0 5.178,1.526 5.178,-0.647c0,-4.22 -13.206,-3.237 -18.123,-3.237c1.273,-2.653 2.505,-7.856 2.589,-11.654c2.624,0.701 1.063,1.058 3.022,1.024c6.295,-0.108 12.4,-3.836 18.08,-5.813c3.765,-1.311 4.869,-0.199 6.73,-2.98c-3.775,-5.154 -15.345,4.532 -23.948,4.532l-0.647,-11.654c-0,-12.439 1.719,-23.696 4.269,-33.927c1.251,-5.02 6.796,-24.988 14.501,-24.988c3.9,-0 6.774,10.546 7.121,14.889c0.736,9.21 3.282,19.363 1.796,28.991c-0.621,4.022 -0.556,9.656 -1.635,13.903c-0.836,3.291 -1.457,2.29 -1.457,6.312c6.094,-0.136 5.306,-7.933 5.896,-12.878c0.559,-4.687 1.495,-12.963 0.577,-16.904c3.866,1.033 6.828,5.312 8.948,8.53c8.739,13.262 10.47,32.896 10.47,49.738c-0,11.871 -3.074,22.11 -6.377,30.526c-2.46,6.27 -5.952,12.049 -9.909,17.28c-1.453,1.922 -2.558,3.736 -4.255,5.455l-18.681,18.218c-5.333,3.974 -9.119,9.772 -12.681,15.154c-1.726,2.609 -2.467,3.012 -2.467,7.244c-2.254,-0.525 -3.101,-1.328 -5.576,-2.21c-1.429,-0.51 -5.427,-1.714 -5.427,0.915c-0,2.879 8.77,5.114 11.224,6.254c2.382,1.106 4.101,1.731 6.246,2.815c2.08,1.051 4.284,1.843 6.597,2.466c9.458,2.548 19.91,4.102 29.506,6.094c17.478,3.629 55.993,13.057 69.832,19.495c12.916,6.008 26.853,8.31 40.079,13.647c8.602,3.471 18.099,6.024 26.892,8.709l21.195,5.991c12.722,3.831 21.681,6.756 35.313,9.351c5.067,0.965 9.354,2.018 14.218,3.258c2.707,0.691 5.05,0.926 7.517,1.546c2.364,0.593 5.031,1.214 7.189,1.872c2.212,0.674 4.308,1.081 6.658,1.757c7.093,2.042 13.906,3.621 20.655,6.531l37.239,16.488c2.045,0.802 4.179,1.604 6.351,2.711l31.736,13.576c5.793,2.321 18.805,8.785 23.02,12.582c1.465,1.319 3.212,3.067 4.531,4.532l8.002,10.124c1.154,1.988 1.642,4.545 2.186,6.878c-2.166,-0.505 -4.632,-1.793 -6.56,-2.503c-11.669,-4.303 -39.396,-12.909 -39.396,8.329c0,3.788 1.643,6.718 3.353,9.595c2.719,4.574 6.852,7.145 10.836,10.527l0.698,0.596c-2.434,-0.203 -4.818,-1.282 -7.034,-2.028c-2.082,-0.701 -4.656,-1.214 -6.949,-2.113c-10.906,-4.273 -22.147,-8.617 -33.509,-11.802l-22.546,-5.287c-2.796,-0.7 -4.342,-1.37 -6.892,-2.17c-2.287,-0.718 -5.095,-1.364 -7.806,-1.904c-16.636,-3.315 -28.603,-4.648 -45.279,-9.74c-17.087,-5.217 -28.674,-3.335 -47.333,-8.333c-4.678,-1.253 -9.462,-2.544 -14.157,-3.968c-7.019,-2.127 -14.253,-3.948 -21.003,-6.831c-5.302,-2.265 -15.106,-6.682 -21.151,-6.682c-9.526,0 -17.443,1.163 -23.04,8.678c-2.384,3.201 -4.786,5.244 -7.541,7.996c-1.419,1.418 -2.742,2.411 -3.728,4.039c-1.28,2.113 -1.212,3.703 -3.232,5.184c-0.172,-2.068 -0.963,-3.465 -1.745,-5.377c-0.861,-2.105 -1.373,-3.813 -2.043,-5.724c-1.853,-5.285 -4.655,-10.489 -7.427,-15.232c-1.909,-3.266 -6.246,-12.71 -8.85,-14.455c-0,5.167 3.255,8.657 5.18,12.947l7.526,19.663c5.204,15.686 7.057,17.267 4.286,35.534c-0.421,2.778 -0.074,3.717 -1.305,5.815l-1.839,2.046c-4.415,3.844 -6.17,4.458 -11.697,7.075c-10.993,5.205 -10.45,5.111 -20.839,1.651c-3.294,-1.097 -10.661,-4.681 -13.675,-0.566c4.104,0.957 8.161,3.568 12.298,4.532c-1.109,4.156 -7.581,6.154 -10.096,17.741c-0.945,4.353 -0.959,7.98 -1.798,12.445c-1.15,6.129 -3.496,12.571 -8.279,16.321c-3.5,2.744 -7.522,4.75 -12.179,5.945c-16.992,4.361 -12.606,0.581 -23.959,3.227l-0,1.942c2.554,0.213 3.033,0.648 6.472,0.648c-0.588,2.201 -7.484,7.275 -11.014,14.232c-3.781,7.452 -3.874,10.472 -11.632,13.615c-6.306,2.553 -12.819,3.665 -20.122,5.122c-7.845,1.563 -12.485,3.286 -21.958,3.286c1.247,4.67 4.902,4.498 8.987,3.812c9.983,-1.676 27.916,-5.141 35.029,-8.342c14.371,-6.465 10.407,-16.339 20.879,-25.083l5.656,-5.995c7.25,0 15.069,-2.377 21.143,-5.396c6.588,-3.275 9.606,-7.569 12.518,-14.023c3.547,-7.859 3.231,-18.615 6.364,-26.653c1.792,-4.595 5.745,-8.176 9.814,-10.901c6.746,3.237 13.061,-1.548 19.328,-3.975l9.158,-5.083c9.266,-6.884 6.452,-11.793 7.905,-21.226c0.648,-4.202 -0.144,-9.202 -0.144,-13.741c1.815,-0.657 2.247,-2.304 2.975,-4.146c3.381,-8.557 5.317,-6.662 10.346,-12.31c6.66,-7.48 7.564,-10.736 20.336,-10.736c9.348,0 17.07,3.916 24.815,7.549c2.891,1.356 5.365,1.845 8.278,2.727c11.332,3.435 22.392,6.995 34.057,9.311l18.954,2.407c9.661,0.754 17.928,3.114 26.601,5.763c8.901,2.717 17.984,4.181 27.265,5.747c6.136,1.035 12.143,1.987 17.554,3.806c10.913,3.667 23.858,5.133 34.627,8.742l40.284,14.089c13.087,4.286 13.655,0.554 27.836,5.175c31.131,10.142 52.87,-3.384 19.73,-27.504c-6.017,-4.379 -8.521,-2.627 -9.453,-10.615c-0.24,-2.06 -1.713,-5.725 -2.574,-7.137c-0.808,-1.324 -1.063,-1.262 -2.114,-2.417c-11.802,-12.978 -6.462,-11.47 -24.538,-20.775c-4.468,-2.301 -8.898,-4.631 -13.576,-6.49l-13.593,-5.828c-14.173,-5.596 -27.892,-12.516 -42.077,-18.122c-9.594,-3.792 -17.906,-8.52 -27.981,-11.505c-15.549,-4.607 -31.613,-8.335 -47.923,-11.627c-13.793,-2.784 -18.902,-5.153 -31.573,-8.56l-30.815,-8.668c-10.242,-2.754 -19.425,-7.42 -29.657,-10.477l-44.249,-15.302l-35.224,-9.44c-1.718,-0.429 -2.802,-0.549 -4.267,-0.911c-9.42,-2.329 -34.889,-6.644 -40.978,-8.862c-2.86,-1.043 -4.049,-1.497 -7.31,-2.4c-11.204,-3.104 -4.255,-9.64 0.39,-15.931c2.327,-3.15 6.215,-6.718 9.209,-9.564l9.722,-9.051c24.002,-24.008 33.455,-51.861 27.422,-86.663c-1.992,-11.488 -4.913,-21.736 -11.128,-30.952c-2.899,-4.298 -7.109,-7.296 -11.275,-10.087c-0,-8.229 -1.739,-24.881 -8.216,-30.627c-10.516,-9.331 -19.514,16.437 -21.437,23.627c-1.627,6.084 -2.469,11.051 -3.521,17.843c-2.521,16.278 0.638,12.928 -3.958,28.412c-0.975,3.282 -1.353,5.35 -1.975,9.031c-0.705,4.171 -0.967,5.175 -2.527,8.478c-0.55,1.165 -1.181,2.558 -1.729,3.45c-1.383,2.254 -3.385,3.892 -4.547,6.458c-2.392,5.28 -2.705,5.39 -7.23,8.954c-4.252,3.35 -6,8.566 -9.739,12.271c-3.554,3.523 -7.855,6.594 -12.13,9.232c-1.29,0.796 -1.471,1.169 -2.983,2.196c-1.32,0.897 -1.824,1.248 -3.022,2.156c-4.356,3.301 -17.658,8.219 -23.084,9.281c-22.551,4.413 -41.114,22.044 -64.778,21.961c-3.461,-0.013 -17.476,0.49 -17.476,4.531"/><path d="M165.809,566.297l0,1.295c1.398,0.671 3.107,0.926 4.94,1.533l15.329,5.385c3.429,1.381 6.309,2.415 9.711,3.882c1.483,0.64 8.725,4.09 9.503,4.09c2.475,0 0.236,0.199 1.942,-0.647c-0.711,-1.965 0.089,-0.67 -1.732,-2.153c-4.987,-4.059 -11.95,-6.9 -17.947,-9.239l-11.472,-4.064c-2.634,-0.87 -10.274,-4.702 -10.274,-0.082"/><path d="M121.796,639.456c-0,1.483 0.219,0.753 0.647,2.589c2.118,0 3.137,-0.419 3.977,-0.45c2.561,-0.096 25.847,2.469 28.386,3.687c-0.362,-0.999 -0.313,-1.226 -2.176,-2.355c-1.01,-0.613 -2.095,-1.129 -2.999,-1.532c-8.199,-3.655 -27.835,-5.988 -27.835,-1.939"/><path d="M409.178,535.22c2.432,-0.649 1.594,-0.347 2.379,-2.799l2.726,-12.812c0.939,-5.752 1.368,-12.833 1.368,-19.349c-0,-3.595 -0.648,-3.84 -0.648,-7.122l-1.294,-0c-0,18.186 -0.308,17.599 -2.589,32.371c-0.507,3.283 -1.698,6.781 -1.942,9.711"/><path d="M388.466,509.323l1.942,16.833c-0,-14.468 -0.227,-21.605 3.971,-32.283c1.416,-3.602 3.536,-5.055 1.292,-5.055c-3.898,0 -7.205,14.491 -7.205,20.505"/><path d="M492.674,555.291c0,1.823 0.28,1.198 1.295,1.942c-0,-7.564 0.893,-15.446 2.848,-22.401c0.744,-2.647 1.809,-4.5 2.33,-6.733c-2.539,0.277 -1.672,-0.487 -3.484,4.932c-2.11,6.31 -2.989,15.239 -2.989,22.26"/><path d="M401.411,517.093l-0,4.532c3.224,-0.282 0.828,0.398 1.542,-4.248c0.786,-5.121 0.672,-7.381 2.249,-12.678c0.644,-2.166 1.328,-3.736 1.387,-6.382c-3.09,2.264 -5.178,14.923 -5.178,18.776"/><path d="M571.639,391.492c0.065,-0.064 0.193,0.102 0.193,0.194l-0.193,-0.194Zm51.154,-29.082c-0,-0.125 0.01,-0.252 -0.031,-0.373l-0.062,-0.186c-0.102,-0.308 -0.435,-0.474 -0.743,-0.372c-0.307,0.103 -0.474,0.436 -0.371,0.743l0.032,0.096l-0,0.092c-0,0.324 0.263,0.587 0.587,0.587c0.325,0 0.588,-0.263 0.588,-0.587Zm-2.363,-1.057l-0,-0.029l0.032,-0.096c0.103,-0.308 -0.064,-0.641 -0.371,-0.743c-0.308,-0.103 -0.641,0.063 -0.743,0.371c-0.031,0.092 -0.069,0.184 -0.085,0.28c-0.045,0.083 -0.07,0.178 -0.07,0.279l-0,0.622c-0,0.324 0.263,0.587 0.587,0.587c0.325,0 0.588,-0.263 0.588,-0.587l-0,-0.421c0.041,-0.083 0.062,-0.173 0.062,-0.263l-0,-0Zm-5.721,-0.388c-0.005,-0.129 -0.051,-0.237 -0.091,-0.358c-0.103,-0.307 -0.435,-0.474 -0.743,-0.371c-0.308,0.102 -0.474,0.435 -0.372,0.743l0.032,0.096c0,0.107 0.013,0.193 0.062,0.291l0,0.001c0,0.296 -0.047,0.587 0.205,0.804c0.35,0.408 1.032,0.165 1.032,-0.383c0,-0.123 -0.004,-0.211 -0.062,-0.325c0,-0.187 0.019,-0.322 -0.063,-0.498Zm-3.17,0.435l0,-0.172c0,-0.129 -0.052,-0.251 -0.092,-0.372c-0.103,-0.308 -0.435,-0.474 -0.743,-0.371c-0.308,0.102 -0.474,0.435 -0.372,0.742l0.032,0.097c0,0.202 -0.028,0.435 0.069,0.616c0.044,0.282 0.287,0.498 0.581,0.498c0.324,-0 0.587,-0.264 0.587,-0.588c0,-0.162 0.015,-0.298 -0.062,-0.45Zm-3.112,0.577c-0.086,-0.763 -1.171,-1.371 -1.171,0.371c-0,0.334 0.315,0.649 0.649,0.649l0.125,0c0.539,0 0.786,-0.663 0.397,-1.02Zm-6.197,1.325c-0.118,-0.281 -0.434,-0.428 -0.728,-0.33c-0.308,0.102 -0.474,0.435 -0.371,0.743c0.035,0.107 0.066,0.229 0.128,0.323c0.008,0.022 0.018,0.044 0.028,0.065c0.008,0.318 0.268,0.573 0.587,0.573c0.325,-0 0.588,-0.263 0.588,-0.588c-0,-0.169 0.015,-0.305 -0.069,-0.462c-0.019,-0.126 -0.078,-0.238 -0.163,-0.324Zm-6.309,2.412c-0.062,-0.042 -0.125,-0.083 -0.187,-0.125c-0.27,-0.18 -0.634,-0.107 -0.814,0.163c-0.189,0.283 -0.101,0.638 0.177,0.824l0.007,0.012c0.053,0.146 0.155,0.234 0.26,0.339c0.089,0.211 0.298,0.36 0.542,0.36l0.062,0c0.472,0 0.744,-0.526 0.491,-0.91c-0.044,-0.123 -0.134,-0.225 -0.233,-0.31c-0.025,-0.029 -0.054,-0.056 -0.084,-0.08c-0.044,-0.112 -0.122,-0.207 -0.221,-0.273Zm20.157,-22.702l0,-0.622c0,-0.13 -0.052,-0.251 -0.093,-0.372c-0.102,-0.308 -0.435,-0.474 -0.743,-0.372c-0.307,0.103 -0.473,0.436 -0.371,0.743l0.032,0.096l0,0.527c0,0.324 0.263,0.587 0.588,0.587c0.324,0 0.587,-0.263 0.587,-0.587Zm-2.549,-1.294c-0,-1.157 -1.872,-0.558 -0.892,0.932c0.008,0.023 0.017,0.045 0.028,0.066c0.003,0.114 0.038,0.219 0.096,0.308c0.082,0.226 0.299,0.389 0.554,0.389c0.324,-0 0.587,-0.263 0.587,-0.588c-0,-0.145 0.007,-0.251 -0.063,-0.388c-0.003,-0.155 -0.067,-0.295 -0.169,-0.397c-0.05,-0.121 -0.053,-0.21 -0.141,-0.322Zm-3.917,-0.399l-0,-0.11c-0,-0.325 -0.263,-0.588 -0.587,-0.588c-0.325,0 -0.588,0.264 -0.588,0.588l0,0.373c0,0.1 0.025,0.194 0.069,0.276c0.01,0.06 0.028,0.119 0.056,0.174c0.002,0.094 0.027,0.183 0.069,0.262c0.043,0.281 0.286,0.497 0.58,0.497c0.325,-0 0.588,-0.263 0.588,-0.588c-0,-0.169 0.014,-0.305 -0.07,-0.463c-0.009,-0.061 -0.028,-0.12 -0.055,-0.173c-0.002,-0.089 -0.024,-0.173 -0.062,-0.248Zm-3.945,-0.667c-0.031,-0.011 -0.063,-0.021 -0.094,-0.031c-0.307,-0.103 -0.64,0.063 -0.743,0.371c-0.087,0.262 0.021,0.543 0.246,0.684l0.016,0.024c0.016,0.079 0.056,0.167 0.098,0.238c0.013,0.054 0.033,0.106 0.062,0.156c0.011,0.047 0.034,0.112 0.051,0.158c0.043,0.317 0.303,0.508 0.613,0.508c0.425,-0 0.704,-0.436 0.54,-0.819c-0.011,-0.046 -0.031,-0.101 -0.047,-0.147c-0.007,-0.118 -0.049,-0.226 -0.116,-0.315c-0.013,-0.045 -0.031,-0.088 -0.054,-0.128c-0.022,-0.092 -0.087,-0.221 -0.147,-0.295c-0.045,-0.081 -0.064,-0.13 -0.133,-0.2l0,0c-0.021,-0.017 -0.044,-0.044 -0.064,-0.063c-0.066,-0.067 -0.145,-0.113 -0.228,-0.141Zm-11.421,2.568c-1.845,1.855 3.469,1.873 1.438,-0.079c-0.061,-0.065 -0.136,-0.117 -0.221,-0.149c-0.076,-0.106 -0.184,-0.173 -0.282,-0.144c-0.114,-0.051 -0.238,-0.082 -0.363,-0.082c-0.278,0 -0.511,0.194 -0.572,0.454Zm-8.505,3.868l-0.125,-0c-0.642,-0 -0.811,0.889 -0.223,1.13c0.016,0.019 0.033,0.036 0.051,0.052c0.051,0.092 0.122,0.17 0.179,0.256c0.02,0.058 0.051,0.103 0.075,0.158c0.017,0.071 0.056,0.153 0.093,0.217c0.25,0.58 1.128,0.406 1.128,-0.231c-0,-0.149 -0.012,-0.256 -0.097,-0.385c-0.047,-0.13 -0.102,-0.281 -0.19,-0.39c-0.034,-0.062 -0.105,-0.168 -0.152,-0.218c-0.034,-0.107 -0.104,-0.205 -0.184,-0.259c-0.033,-0.051 -0.08,-0.101 -0.125,-0.142c-0.107,-0.116 -0.26,-0.188 -0.43,-0.188Zm-2.192,1.964l-0.01,-0.007l-0.083,-0.055c-0.27,-0.181 -0.635,-0.108 -0.815,0.162c-0.171,0.255 -0.115,0.597 0.122,0.785c0.033,0.042 0.083,0.092 0.125,0.125c0.058,0.072 0.162,0.168 0.228,0.233c0.031,0.076 0.08,0.132 0.116,0.206c0.011,0.066 0.032,0.129 0.063,0.186c0.013,0.085 0.044,0.164 0.09,0.233c0.038,0.107 0.09,0.17 0.168,0.248c0.229,0.229 0.602,0.229 0.831,-0c0.175,-0.175 0.216,-0.433 0.125,-0.647c-0.014,-0.055 -0.035,-0.107 -0.063,-0.155c0,-0.014 -0.081,-0.253 -0.093,-0.28c-0.025,-0.106 -0.083,-0.188 -0.142,-0.278c-0.03,-0.082 -0.078,-0.157 -0.139,-0.218l0,0l-0.12,-0.12c-0.025,-0.045 -0.056,-0.086 -0.092,-0.123c-0.076,-0.135 -0.185,-0.21 -0.311,-0.295Zm-8.988,9.026c-0.074,-0.073 -0.129,-0.11 -0.214,-0.167c-0.27,-0.179 -0.635,-0.106 -0.815,0.163c-0.174,0.262 -0.111,0.614 0.14,0.799c0.05,0.063 0.07,0.113 0.135,0.174c0.093,0.101 0.224,0.162 0.323,0.261c0.032,0.058 0.074,0.11 0.123,0.153c0.094,0.167 0.156,0.354 0.301,0.488c0.358,0.387 1.018,0.139 1.018,-0.399c-0,-0.154 -0.032,-0.279 -0.131,-0.401c-0.039,-0.068 -0.061,-0.134 -0.11,-0.199c-0.031,-0.107 -0.093,-0.202 -0.174,-0.274c-0.038,-0.068 -0.088,-0.128 -0.148,-0.176c-0.028,-0.034 -0.059,-0.065 -0.094,-0.093c-0.063,-0.079 -0.154,-0.157 -0.243,-0.198c-0.034,-0.053 -0.069,-0.087 -0.112,-0.131l0.001,-0Zm-6.525,8.313c-0.24,-0.581 -1.131,-0.436 -1.131,0.243c0,0.226 0.098,0.345 0.222,0.508c0.055,0.112 0.14,0.204 0.211,0.307c0.102,0.153 0.27,0.367 0.426,0.458c0.034,0.753 0.182,0.433 0.292,0.08c0.53,0.014 0.798,-0.632 0.424,-1.006c-0.081,-0.083 -0.134,-0.155 -0.203,-0.248c-0.068,-0.113 -0.166,-0.23 -0.241,-0.342Zm4.324,23.353c-0.053,-0.054 -0.096,-0.117 -0.125,-0.187c-0.062,-0.063 -0.107,-0.136 -0.135,-0.214c-0.064,-0.098 -0.096,-0.211 -0.096,-0.323l-0.001,-0l0,-0.187c0,-0.324 0.263,-0.587 0.588,-0.587c0.304,-0 0.555,0.232 0.584,0.528l0.035,0.035c0.189,-0.013 0.396,0.292 0.337,0.528c0.04,0.05 0.072,0.107 0.094,0.169c0.253,0.384 -0.019,0.91 -0.491,0.91l-0.062,-0c-0.244,-0 -0.454,-0.15 -0.542,-0.362c-0.06,-0.06 -0.106,-0.133 -0.135,-0.214c-0.02,-0.03 -0.037,-0.063 -0.051,-0.096Zm3.81,-4.726l0,0.293c0.035,0.046 0.063,0.098 0.083,0.154c0.025,0.038 0.046,0.079 0.062,0.123c0.025,0.039 0.046,0.081 0.062,0.125c0.045,0.069 0.077,0.148 0.09,0.233c0.073,0.137 0.069,0.24 0.069,0.386c0.057,0.114 0.062,0.203 0.062,0.325c-0,0.548 -0.682,0.791 -1.033,0.383c-0.211,-0.181 -0.204,-0.37 -0.204,-0.617c-0.01,-0.02 -0.019,-0.04 -0.027,-0.061c-0.858,-0.614 -0.77,-0.576 -0.342,-0.676l-0.021,-0.046c-0.184,-0.186 -0.17,-0.364 -0.17,-0.599c0,-0.325 0.263,-0.588 0.588,-0.588c0.293,0 0.537,0.216 0.58,0.498c0.032,0.068 0.072,0.098 0.11,0.161c0.031,-0.03 0.061,-0.061 0.091,-0.094Zm1.707,-3.289c0.086,0.056 0.16,0.161 0.192,0.276c0.031,0.052 0.055,0.109 0.068,0.169c0.039,0.046 0.071,0.098 0.094,0.154c0.142,0.144 0.17,0.288 0.17,0.48l-0.068,-0.068l-0.004,0c0.043,0.052 0.077,0.111 0.1,0.176c0.253,0.384 -0.02,0.909 -0.491,0.909l-0.062,0c-0.294,0 -0.538,-0.216 -0.581,-0.497c-0.049,-0.093 -0.069,-0.185 -0.069,-0.288c-0.061,-0.078 -0.102,-0.172 -0.118,-0.273c-0.091,-0.165 -0.026,-0.119 -0.18,-0.222c-0.27,-0.179 -0.343,-0.544 -0.163,-0.814c0.18,-0.27 0.544,-0.343 0.814,-0.163l0.039,0.025l-0.116,0c0.143,0 0.274,0.051 0.375,0.136Zm1.757,-2.621c0.045,-0.017 0.093,-0.013 0.139,0.006c0.209,0.034 0.391,0.18 0.463,0.394l0.018,0.055l-0.036,-0.036l0,0c0.076,0.076 0.132,0.173 0.157,0.281c0.117,0.117 0.209,0.201 0.25,0.377c0.044,0.053 0.08,0.114 0.104,0.181c0.253,0.384 -0.019,0.91 -0.491,0.91l-0.062,0c-0.255,0 -0.472,-0.162 -0.553,-0.389c-0.026,-0.039 -0.047,-0.08 -0.062,-0.125c-0.02,-0.029 -0.037,-0.061 -0.05,-0.093c-0.014,-0.002 -0.027,-0.015 -0.039,-0.041c-0.072,-0.065 -0.127,-0.146 -0.16,-0.238c-0.048,-0.073 -0.078,-0.154 -0.09,-0.236c-0.044,-0.085 -0.068,-0.176 -0.101,-0.274c-0.121,-0.365 0.135,-0.743 0.513,-0.772Zm2.227,-1.019c-0.02,-0.03 -0.037,-0.063 -0.051,-0.096c-0.133,-0.134 -0.17,-0.278 -0.17,-0.461c-0.027,-0.053 -0.046,-0.112 -0.055,-0.173c-0.095,-0.178 -0.069,-0.39 -0.069,-0.587c-0,-0.325 0.263,-0.588 0.587,-0.588c0.325,0 0.588,0.263 0.588,0.588l-0,0.067l-0.11,-0.11l-0,0c0.061,0.061 0.108,0.135 0.138,0.218c0.08,0.122 0.096,0.228 0.096,0.37c0.011,0.021 0.02,0.043 0.028,0.065c0.02,0.03 0.037,0.062 0.051,0.096c0.085,0.086 0.144,0.198 0.163,0.323c0.076,0.141 0.069,0.25 0.069,0.401c0,0.324 -0.263,0.587 -0.587,0.587c-0.294,0 -0.538,-0.216 -0.581,-0.497c-0.013,-0.025 -0.025,-0.051 -0.034,-0.078c-0.026,-0.038 -0.047,-0.08 -0.063,-0.125Zm2.141,-3.949c0.117,-0.341 0.362,-0.238 0.485,-0.032c0.222,0.084 0.38,0.299 0.38,0.55l-0,0.067l-0.11,-0.11l-0,0.001c0.103,0.103 0.168,0.244 0.172,0.4c0.054,0.108 0.062,0.195 0.062,0.312c0.03,0.06 0.068,0.126 0.09,0.189c0.046,0.069 0.077,0.148 0.09,0.232c0.063,0.119 0.069,0.211 0.069,0.339c-0,0.324 -0.263,0.587 -0.588,0.587c-0.254,0 -0.471,-0.162 -0.553,-0.389c-0.025,-0.039 -0.046,-0.081 -0.062,-0.124c-0.038,-0.058 -0.066,-0.123 -0.082,-0.192c-0.111,-0.132 -0.139,-0.26 -0.139,-0.427c-0.054,-0.108 -0.062,-0.194 -0.062,-0.311c-0.087,-0.173 -0.062,-0.384 -0.062,-0.574c-0,-0.224 0.126,-0.419 0.31,-0.518Zm2.556,-2.463c0.087,-0.445 0.331,-0.401 0.477,-0.217c0.315,0.01 0.568,0.269 0.568,0.587l-0,0.067l-0.11,-0.109l-0,-0c0.086,0.086 0.145,0.199 0.165,0.325c0.013,0.025 0.025,0.051 0.035,0.078c0.025,0.038 0.046,0.08 0.062,0.124c0.025,0.039 0.046,0.08 0.062,0.124c0.025,0.039 0.046,0.08 0.062,0.125c0.085,0.129 0.097,0.236 0.097,0.385c-0,0.548 -0.683,0.791 -1.034,0.382c-0.103,-0.089 -0.175,-0.213 -0.197,-0.354c-0.013,-0.026 -0.025,-0.052 -0.034,-0.079c-0.026,-0.039 -0.047,-0.081 -0.062,-0.124c-0.026,-0.039 -0.047,-0.081 -0.062,-0.124c-0.048,-0.071 -0.078,-0.151 -0.09,-0.233c-0.045,-0.084 -0.069,-0.179 -0.069,-0.277c-0,-0.242 -0.034,-0.476 0.13,-0.68Zm3.631,-2.197l0.221,-0l-0,0.716c0.084,0.085 0.168,0.169 0.253,0.254c0.115,0.114 0.172,0.265 0.172,0.415l0.001,0l-0,0.125c-0,0.324 -0.263,0.587 -0.588,0.587c-0.206,0 -0.389,0.024 -0.571,-0.096c-0.082,-0.03 -0.155,-0.076 -0.215,-0.136c-0.111,-0.046 -0.17,-0.107 -0.251,-0.189c-0.106,-0.106 -0.209,-0.193 -0.262,-0.341c-0.063,-0.095 -0.097,-0.207 -0.097,-0.323l0,-0.621c0,-0.391 0.372,-0.668 0.743,-0.567c0.215,-0.059 0.446,0.009 0.594,0.176Zm2.315,-2.62c0.121,-0.13 0.286,-0.045 0.385,0.107c0.134,0.095 0.185,0.199 0.235,0.348l-0.036,-0.036l0,0c0.097,0.096 0.198,0.185 0.251,0.313c0.085,0.086 0.144,0.198 0.163,0.324c0.014,0.025 0.025,0.051 0.035,0.078c0.085,0.129 0.096,0.236 0.096,0.384c0,0.325 -0.263,0.588 -0.587,0.588c-0.255,-0 -0.472,-0.163 -0.553,-0.39c-0.026,-0.039 -0.047,-0.08 -0.062,-0.123c-0.02,-0.031 -0.038,-0.063 -0.051,-0.097c-0.053,-0.053 -0.096,-0.116 -0.125,-0.186c-0.132,-0.134 -0.206,-0.364 -0.264,-0.539c-0.121,-0.364 0.134,-0.742 0.513,-0.771Zm6.628,-2.652c0.17,0.019 0.342,0.275 0.311,0.491c0.012,0.036 0.021,0.069 0.027,0.106c0.031,0.058 0.053,0.121 0.063,0.188c0.036,0.068 0.059,0.143 0.066,0.223c0.085,0.107 0.127,0.234 0.127,0.37l-0.109,-0.11l-0.001,0c0.087,0.086 0.146,0.199 0.166,0.326c0.206,0.385 -0.072,0.863 -0.519,0.863l-0.062,0c-0.318,0 -0.578,-0.253 -0.587,-0.569c-0.04,-0.08 -0.056,-0.162 -0.061,-0.249c-0.068,-0.127 -0.117,-0.226 -0.125,-0.375c-0.028,-0.055 -0.047,-0.114 -0.056,-0.174c-0.046,-0.086 -0.069,-0.182 -0.069,-0.277l-0,0l-0,-0.029l-0.032,-0.096c-0.174,-0.521 0.399,-0.967 0.861,-0.688Zm-23.609,-1.202c-0,-1.506 3.58,-5.228 5.825,-5.827c0.732,1.526 0.841,3.537 1.533,5.589c0.688,2.041 1.243,3.441 1.704,5.417c-2.452,3.661 -4.331,3.301 -5.179,6.474c-2.016,-1.477 -3.883,-11.147 -3.883,-11.653Zm-5.37,-0l0.192,-0l-0,0.311c0.013,0.021 0.025,0.043 0.035,0.066c0.093,0.144 0.207,0.266 0.301,0.408c0.061,0.071 0.155,0.172 0.198,0.248c0.158,0.207 0.325,0.346 0.325,0.632c0,0.611 -0.811,0.809 -1.108,0.279l-0.398,-0.002l-0,-0.503c-0.069,-0.086 -0.191,-0.229 -0.236,-0.319l-0.083,-0.128c-0.063,-0.073 -0.082,-0.125 -0.118,-0.206c-0.052,-0.09 -0.079,-0.192 -0.079,-0.294l0,-0l0,-0.047c0,-0.507 0.596,-0.767 0.971,-0.445Zm34.668,-0.532c0.054,0.12 0.156,0.21 0.207,0.331c0.059,0.06 0.106,0.133 0.135,0.215c0.085,0.129 0.097,0.236 0.097,0.384c-0,0.548 -0.683,0.791 -1.033,0.383c-0.076,-0.065 -0.136,-0.15 -0.17,-0.247c-0.02,-0.03 -0.037,-0.062 -0.051,-0.096c-0.06,-0.06 -0.106,-0.133 -0.136,-0.214c-0.02,-0.031 -0.037,-0.063 -0.051,-0.096c-0.113,-0.115 -0.169,-0.264 -0.169,-0.413l-0,-0l-0,-0.187c-0,-0.324 0.263,-0.587 0.587,-0.587c0.304,-0 0.554,0.231 0.584,0.527Zm10.953,-1.044c-0.543,-1.078 0.906,-1.864 1.104,-0.543c0.042,0.079 0.068,0.169 0.07,0.264c0.087,0.173 0.063,0.385 0.063,0.575c-0,0.324 -0.264,0.587 -0.588,0.587c-0.324,0 -0.587,-0.263 -0.587,-0.587l-0,-0.048c-0.038,-0.075 -0.06,-0.159 -0.062,-0.248Zm-44.517,-0.543l0,0l0,-0.093c0,-0.325 0.263,-0.588 0.588,-0.588c0.294,0 0.537,0.216 0.58,0.498c0.02,0.036 0.043,0.081 0.058,0.118c0.074,0.089 0.123,0.218 0.15,0.331c0.029,0.065 0.05,0.095 0.066,0.169c0.025,0.062 0.088,0.136 0.123,0.206c0.515,0.298 0.308,1.097 -0.293,1.097c-0.232,-0 -0.364,-0.046 -0.524,-0.219c-0.06,-0.056 -0.136,-0.167 -0.177,-0.24c-0.131,-0.116 -0.166,-0.248 -0.216,-0.401l-0.006,-0.011c-0.064,-0.079 -0.108,-0.174 -0.124,-0.279c-0.022,-0.04 -0.042,-0.084 -0.062,-0.124c-0.091,-0.112 -0.163,-0.32 -0.163,-0.464Zm4.52,-4.283c-0.225,-0.229 -0.223,-0.598 0.004,-0.826c0.23,-0.23 0.602,-0.23 0.831,-0c0.113,0.113 0.256,0.232 0.316,0.381c0.023,0.027 0.044,0.057 0.061,0.089c0.037,0.037 0.068,0.079 0.094,0.125c0.07,0.073 0.135,0.125 0.188,0.22c0.073,0.065 0.129,0.148 0.163,0.241c0.038,0.058 0.066,0.123 0.082,0.192c0.195,0.231 0.184,0.577 -0.033,0.795c-0.192,0.192 -0.484,0.223 -0.709,0.094c-0.171,-0.074 -0.269,-0.206 -0.34,-0.371c-0.035,-0.062 -0.044,-0.123 -0.071,-0.172l-0.035,-0.048c-0.051,0.069 -0.097,0.051 -0.126,-0.14c-0.032,-0.034 -0.06,-0.072 -0.082,-0.113c-0.066,-0.068 -0.082,-0.11 -0.125,-0.187c-0.045,-0.046 -0.068,-0.098 -0.105,-0.137c-0.044,-0.041 -0.082,-0.089 -0.113,-0.143Zm1.885,-2.344c-0.037,-0.035 -0.073,-0.072 -0.108,-0.107c-0.229,-0.229 -0.23,-0.602 -0.001,-0.831c0.199,-0.199 0.506,-0.226 0.733,-0.079c0.181,-0.15 0.437,0.123 0.448,0.381c0.029,0.043 0.067,0.096 0.091,0.14c0.086,0.076 0.168,0.165 0.213,0.272l0.03,0.032l0,-0c0.113,0.112 0.204,0.203 0.284,0.346c0.067,0.068 0.117,0.152 0.144,0.246c0.035,0.047 0.063,0.098 0.083,0.154c0.085,0.129 0.096,0.236 0.096,0.384c0,0.611 -0.819,0.81 -1.105,0.277c-0.051,-0.062 -0.087,-0.131 -0.108,-0.205c-0.039,-0.052 -0.07,-0.112 -0.09,-0.176c-0.029,-0.032 -0.055,-0.068 -0.076,-0.106c-0.06,-0.06 -0.113,-0.11 -0.156,-0.187c-0.037,-0.038 -0.068,-0.08 -0.093,-0.124c-0.097,-0.099 -0.211,-0.193 -0.27,-0.32c-0.042,-0.027 -0.081,-0.06 -0.115,-0.097Zm8.864,-2.261c3.077,-0.821 4.146,-3.04 7.767,-3.884c0.069,3.09 2.243,9.436 2.589,13.596c-3.139,0.261 -4.731,1.973 -7.119,3.237c-1.026,-4.404 -2.44,-6.734 -3.237,-12.949Zm-6.082,-0.021c-0.026,-0.045 -0.058,-0.109 -0.075,-0.157c-0.177,-0.27 -0.103,-0.632 0.165,-0.811c0.27,-0.18 0.635,-0.107 0.815,0.163c0.054,0.081 0.074,0.118 0.122,0.204c0.054,0.066 0.093,0.144 0.114,0.229c0.023,0.044 0.042,0.083 0.056,0.132c0.094,0.125 0.168,0.266 0.199,0.42c0.262,0.378 0.017,0.954 -0.483,0.954c-0.212,0 -0.405,-0.121 -0.521,-0.295c-0.045,0.038 -0.085,-0.01 -0.11,-0.211c-0.02,-0.047 -0.035,-0.096 -0.042,-0.146l-0.031,-0.062c-0.075,-0.092 -0.09,-0.16 -0.128,-0.265c-0.028,-0.043 -0.061,-0.107 -0.081,-0.155Zm26.147,-6.453c1.587,2.999 2.589,7.753 2.589,12.301c-2.952,0.246 -5.162,1.336 -7.767,1.943c-0.701,-8.424 -4.562,-13.013 -0.685,-13.607c2.564,-0.393 3.268,-0.032 5.863,-0.637Zm-17.679,0.698c0.168,0.098 0.293,0.212 0.327,0.296c0.352,0.36 0.123,1.028 -0.421,1.028c-0.19,0 -0.309,-0.072 -0.442,-0.199c-0.106,-0.059 -0.22,-0.19 -0.311,-0.279c-0.079,-0.045 -0.122,-0.061 -0.19,-0.128l0,-0c-0.034,-0.04 -0.162,-0.14 -0.212,-0.169c-0.132,-0.002 -0.212,-0.046 -0.172,-0.169c-0.308,-0.459 0.14,-1.062 0.674,-0.884c0.165,0.055 0.217,0.073 0.35,0.2c0.045,0.025 0.087,0.057 0.123,0.093c0.105,0.061 0.155,0.077 0.235,0.177l0.039,0.034Zm2.324,-0.761c-0.056,0.019 -0.116,0.04 -0.179,0.063l0.13,-0.158c-0.04,-0.051 -0.06,-0.093 -0.112,-0.137l0.001,-0c-0.052,-0.052 -0.129,-0.164 -0.165,-0.231c-0.313,-0.384 -0.043,-0.958 0.474,-0.958c0.145,-0.206 0.414,-0.302 0.666,-0.218c0.298,0.099 0.464,0.416 0.379,0.716c0.05,0.114 0.165,0.189 0.227,0.3c0.059,0.06 0.105,0.132 0.134,0.213c0.064,0.098 0.099,0.231 0.143,0.341c0.219,0.38 -0.032,0.911 -0.51,0.911l-0.062,0l0,-0c-0.132,-0 -0.263,-0.044 -0.371,-0.132c-0.04,-0.021 -0.071,-0.05 -0.108,-0.07c-0.193,-0.082 -0.213,-0.184 -0.34,-0.312l-0.001,-0.001l-0,0c-0.016,-0.016 -0.031,-0.033 -0.045,-0.05c-0.115,-0.061 -0.207,-0.158 -0.261,-0.277Zm8.211,-3.004c0.053,0.049 0.146,0.133 0.155,0.205c0.022,0.035 0.036,0.068 0.055,0.103c0.057,0.069 0.095,0.148 0.115,0.231c0.062,0.124 0.079,0.187 0.079,0.326c-0,0.324 -0.263,0.587 -0.588,0.587c-0.28,0 -0.554,-0.106 -0.698,-0.362c-0.074,-0.074 -0.201,-0.191 -0.253,-0.268c-0.076,-0.051 -0.139,-0.12 -0.183,-0.199l-0.02,-0.021c-0.085,-0.047 -0.156,-0.114 -0.207,-0.192c-0.05,-0.021 -0.075,-0.06 -0.062,-0.124c-0.145,-0.404 0.183,-0.831 0.617,-0.782c0.37,-0.347 0.99,-0.09 0.99,0.428l-0,0.068Zm2.058,-0.379l-0,0c-0,-0.034 -0.048,-0.117 -0.069,-0.145c-0.195,-0.259 -0.142,-0.627 0.117,-0.822c0.26,-0.195 0.628,-0.142 0.823,0.117c0.143,0.192 0.304,0.432 0.304,0.68c0.032,0.065 0.053,0.137 0.06,0.214c0.197,0.385 -0.081,0.855 -0.523,0.855c-0.254,-0 -0.47,-0.118 -0.572,-0.358c-0.047,-0.082 -0.075,-0.176 -0.078,-0.277c-0.041,-0.083 -0.062,-0.173 -0.062,-0.264Zm-38.927,28.696c1.107,2.093 2.346,4.196 2.589,7.121c2.886,-2.115 3.267,-7.362 6.472,-9.711l3.237,11.006c-1.339,2.532 -3.747,5.981 -4.77,8.826c-1.301,3.619 -0.482,8.392 0.886,11.244c1.811,-1.326 2.46,-3.186 3.661,-5.402c6.382,-11.771 23.851,-28.264 36.469,-28.264c8.209,0 7.65,-0.288 15.534,3.885c0,-3.277 -0.439,-3.33 -0.647,-5.827l1.294,0c-1.311,-5.632 -5.847,-6.474 -12.945,-6.474c-0.301,-3.619 -1.655,-7.565 -1.941,-11.006c4.336,-0 6.018,1.212 9.708,1.295c-1.182,-14.21 -22.569,-9.282 -30.686,-6.093c-2.774,1.09 -3.955,1.9 -6.438,3.272c-1.624,0.898 -1.235,0.872 -2.623,1.909c-5.9,4.407 -7.584,5.645 -12.504,12.094c-0.758,0.993 -1.212,1.603 -1.951,2.58c-0.958,1.266 -1.153,1.881 -1.978,3.201c-1.387,2.219 -2.19,4.118 -3.367,6.344"/><path d="M620.831,408.325c-0.235,10.564 -12.298,11.459 -12.298,15.539c0,10.989 10.005,-6.856 14.271,3.205l9.555,31.231c2.777,10.443 6.59,15.408 -2.288,22.068c-1.646,1.234 -4.778,1.294 -0.826,9.533c5.416,-3.628 7.046,-6.612 17.083,-9.458c7.054,-1.999 7,-1.624 12.672,-0.79c-2.859,-13.543 -6.455,-2.484 -12.078,-13.261c-1.656,-3.174 -2.33,-5.755 -3.697,-9.25c-3.762,-9.625 -5.76,-20.434 -8.875,-29.968l-5.752,-20.144c-7.37,0 -3.525,0.942 -7.767,1.295"/><path d="M661.608,479.542l1.942,0l-1.02,-3.647c-0.237,-1.54 0.081,-1.289 -2.216,-2.827c0.075,3.37 1.041,3.436 1.294,6.474"/><path d="M618.242,504.144c-0.488,-2.094 -1.1,-2.84 -1.295,-5.179c-1.326,0.958 -1.27,0.681 -0.646,2.498c0.681,1.983 0.539,1.654 1.941,2.681"/><path d="M618.242,505.439c-0,1.52 1.051,0.279 0.423,-0c-0.008,-0.004 -0.423,-1.868 -0.423,-0"/><path d="M417.847,15.67c221.956,0 401.888,179.932 401.888,401.888c-0,221.957 -179.932,401.888 -401.888,401.888c-221.957,0 -401.888,-179.931 -401.888,-401.888c-0,-221.956 179.931,-401.888 401.888,-401.888Z" style="fill:none;fill-rule:nonzero;"/><path d="M64.414,349.743c-1.627,-0.332 -3.435,-0.546 -5.358,-0.647c-1.339,1.962 -2.961,4.186 -4.647,6.434c9.284,1.694 3.005,6.422 -6.087,7.967c-2.254,2.927 -4.034,5.256 -4.591,6.188l-1.008,1.916l-1.111,-0.384c0.934,-1.794 2.778,-4.466 4.979,-7.469c-0.577,0.069 -1.162,0.125 -1.752,0.166c-3.062,0.211 -28.503,-0.812 -16.791,-8.849c6.504,-4.463 17.499,-6.979 27.021,-7.186c3.696,-3.205 6.597,-5.863 7.175,-5.453c0.614,0.436 -0.497,2.606 -2.438,5.552c1.768,0.119 3.437,0.332 4.958,0.643l-0.35,1.122Zm-6.79,-0.702c-0.524,-0.012 -1.056,-0.016 -1.593,-0.013c-2.285,2.035 -4.909,4.191 -7.554,5.94c1.721,0.06 3.205,0.176 4.467,0.337c1.691,-2.229 3.315,-4.38 4.68,-6.264Zm-3.963,0.051c-8.949,0.42 -18.977,2.859 -24.964,6.952c-9.805,6.704 14.811,6.792 16.162,6.695c0.619,-0.044 1.623,-0.202 2.803,-0.442c1.415,-1.903 2.932,-3.899 4.422,-5.861c-0.153,-0.016 -0.304,-0.031 -0.464,-0.046c-0.783,-0.074 -2.772,-0.185 -5.054,-0.237c-3.737,2.156 -7.363,3.236 -9.97,1.727c-4.515,-2.612 6.978,-2.944 6.981,-2.944c0.89,-0.016 1.731,-0.021 2.534,-0.016c2.505,-1.63 5.144,-3.774 7.55,-5.828Zm-4.088,12.781c5.745,-1.38 12.898,-4.025 4.02,-5.258c-1.361,1.802 -2.739,3.594 -4.02,5.258Zm-5.471,-5.748c-3.041,0.002 -6.038,0.158 -7.073,0.675c1.576,1.495 4.153,0.91 7.073,-0.675Zm14.335,-8.219c0.81,-1.146 1.493,-2.161 1.997,-2.995c-0.884,0.86 -1.945,1.878 -3.126,2.963c0.38,0.006 0.756,0.017 1.129,0.032" style="fill:#088085;"/><path d="M61.789,357.337c1.149,-5.587 9.363,-6.771 2.12,1.331c-0.84,0.939 -1.759,1.944 -2.544,2.996c2.264,-1.243 6.122,-3.452 6.67,-4.143l1.11,0.384c-0.843,1.434 -8.099,5.44 -8.987,5.696c-3.78,1.09 5.636,-8.47 5.65,-9.501c-1.312,-0.295 -2.6,2.141 -2.852,3.367l-1.167,-0.13Z" style="fill:#088085;"/><path d="M70.795,352.085c-0.758,1.868 -2.1,4.617 0.591,4.668c0.462,-0.645 1.403,-5.546 -0.5,-4.52l-0.091,-0.148Zm-0.415,-0.68l-0.107,-0.174c3.988,-2.141 3.311,6.185 1.444,6.668c-4.569,1.184 -2.454,-5.024 -1.847,-6.674l0.51,0.18Z" style="fill:#088085;"/><path d="M74.911,348.225c-0.403,2.515 -0.201,1.264 -0.607,3.754l-1.175,0c0.42,-2.703 0.208,-1.364 0.637,-4.018l1.145,0.264Z" style="fill:#088085;"/></g></g></svg>